<svg width="39" height="38" viewBox="0 0 39 38" fill="none" xmlns="http://www.w3.org/2000/svg">
<path d="M9.09016 8.59479L8.1573 7.77289C7.68049 8.2865 6.99988 8.58069 6.29033 8.58069C4.90269 8.58069 3.7742 7.48114 3.7742 6.12908C3.7742 4.77701 4.90269 3.67747 6.29033 3.67747C7.67798 3.67747 8.80646 4.77701 8.80646 6.12908C8.80646 6.48579 8.72972 6.82963 8.57875 7.15079L9.7217 7.66195C9.94941 7.1796 10.0645 6.66353 10.0645 6.12908C10.0645 4.10098 8.3718 2.45166 6.29033 2.45166C4.20887 2.45166 2.51614 4.10098 2.51614 6.12908C2.51614 8.15718 4.20887 9.8065 6.29033 9.8065C7.35466 9.8065 8.37558 9.36459 9.09016 8.59479Z" fill="#363636"/>
<path d="M2.51614 31.8709C2.51614 33.899 4.20887 35.5483 6.29033 35.5483C8.3718 35.5483 10.0645 33.899 10.0645 31.8709C10.0645 29.8428 8.3718 28.1935 6.29033 28.1935C4.20887 28.1935 2.51614 29.8428 2.51614 31.8709ZM8.80646 31.8709C8.80646 33.223 7.67798 34.3225 6.29033 34.3225C4.90269 34.3225 3.7742 33.223 3.7742 31.8709C3.7742 30.5188 4.90269 29.4193 6.29033 29.4193C7.67798 29.4193 8.80646 30.5188 8.80646 31.8709Z" fill="#363636"/>
<path d="M12.5806 6.12903C12.5806 2.74948 9.75881 0 6.29032 0C2.82184 0 0 2.74948 0 6.12903C0 8.06642 0.934742 9.8751 2.51613 11.0316V26.9684C0.934742 28.1249 0 29.9336 0 31.871C0 35.2505 2.82184 38 6.29032 38C9.75881 38 12.5806 35.2505 12.5806 31.871C12.5806 29.9336 11.6459 28.1249 10.0645 26.9684V11.0316C11.6459 9.8751 12.5806 8.06642 12.5806 6.12903ZM9.08574 27.7945C10.486 28.7078 11.3226 30.2315 11.3226 31.871C11.3226 34.5745 9.06498 36.7742 6.29032 36.7742C3.51566 36.7742 1.25806 34.5745 1.25806 31.871C1.25806 30.2315 2.09468 28.7078 3.4949 27.7945L3.77419 27.6125V10.3875L3.4949 10.2055C2.09468 9.29223 1.25806 7.76855 1.25806 6.12903C1.25806 3.42552 3.51566 1.22581 6.29032 1.22581C9.06498 1.22581 11.3226 3.42552 11.3226 6.12903C11.3226 7.76855 10.486 9.29223 9.08574 10.2055L8.80645 10.3875V27.6125L9.08574 27.7945Z" fill="#363636"/>
<path d="M36.4839 26.9684V11.0316C38.0653 9.8751 39 8.06642 39 6.12903C39 2.74948 36.1782 0 32.7097 0C29.2412 0 26.4194 2.74948 26.4194 6.12903C26.4194 8.06642 27.3541 9.8751 28.9355 11.0316V26.9684C27.3541 28.1249 26.4194 29.9336 26.4194 31.871C26.4194 35.2505 29.2412 38 32.7097 38C36.1782 38 39 35.2505 39 31.871C39 29.9336 38.0653 28.1249 36.4839 26.9684ZM32.7097 36.7742C29.935 36.7742 27.6774 34.5745 27.6774 31.871C27.6774 30.2315 28.514 28.7078 29.9143 27.7945L30.1936 27.6125V10.3875L29.9143 10.2055C28.514 9.29223 27.6774 7.76855 27.6774 6.12903C27.6774 3.42552 29.935 1.22581 32.7097 1.22581C35.4843 1.22581 37.7419 3.42552 37.7419 6.12903C37.7419 7.76855 36.9053 9.29223 35.5051 10.2055L35.2258 10.3875V27.6125L35.5051 27.7945C36.9053 28.7078 37.7419 30.2315 37.7419 31.871C37.7419 34.5745 35.4843 36.7742 32.7097 36.7742Z" fill="#363636"/>
<path d="M6.91935 11.0322H5.66129V12.258H6.91935V11.0322Z" fill="#363636"/>
<path d="M6.91935 14.7096H5.66129V15.9354H6.91935V14.7096Z" fill="#363636"/>
<path d="M6.91935 18.3871H5.66129V19.6129H6.91935V18.3871Z" fill="#363636"/>
<path d="M6.91935 22.0645H5.66129V23.2903H6.91935V22.0645Z" fill="#363636"/>
<path d="M6.91935 25.7419H5.66129V26.9678H6.91935V25.7419Z" fill="#363636"/>
<path d="M22.0161 12.2581C22.0161 10.9061 20.8876 9.80652 19.5 9.80652C18.1123 9.80652 16.9839 10.9061 16.9839 12.2581C16.9839 13.6102 18.1123 14.7097 19.5 14.7097C20.8876 14.7097 22.0161 13.6102 22.0161 12.2581ZM19.5 13.4839C18.8062 13.4839 18.2419 12.9342 18.2419 12.2581C18.2419 11.5821 18.8062 11.0323 19.5 11.0323C20.1938 11.0323 20.7581 11.5821 20.7581 12.2581C20.7581 12.9342 20.1938 13.4839 19.5 13.4839Z" fill="#363636"/>
<path d="M16.9839 33.0968C16.9839 34.4488 18.1123 35.5484 19.5 35.5484C20.8876 35.5484 22.0161 34.4488 22.0161 33.0968C22.0161 31.7447 20.8876 30.6451 19.5 30.6451C18.1123 30.6451 16.9839 31.7447 16.9839 33.0968ZM20.7581 33.0968C20.7581 33.7728 20.1938 34.3226 19.5 34.3226C18.8062 34.3226 18.2419 33.7728 18.2419 33.0968C18.2419 32.4207 18.8062 31.8709 19.5 31.8709C20.1938 31.8709 20.7581 32.4207 20.7581 33.0968Z" fill="#363636"/>
<path d="M24.5323 12.2581C24.5323 9.55457 22.2747 7.35486 19.5 7.35486C16.7253 7.35486 14.4678 9.55457 14.4678 12.2581C14.4678 14.0049 15.4434 15.6291 16.9839 16.4994V28.8555C15.4434 29.7258 14.4678 31.35 14.4678 33.0968C14.4678 35.8003 16.7253 38 19.5 38C22.2747 38 24.5323 35.8003 24.5323 33.0968C24.5323 31.35 23.5566 29.7258 22.0161 28.8555V16.4994C23.5566 15.6291 24.5323 14.0049 24.5323 12.2581ZM21.1166 29.7785C22.4275 30.3859 23.2742 31.6883 23.2742 33.0968C23.2742 35.1249 21.5815 36.7742 19.5 36.7742C17.4185 36.7742 15.7258 35.1249 15.7258 33.0968C15.7258 31.6883 16.5725 30.3859 17.8834 29.7785L18.2419 29.6118V15.7431L17.8834 15.577C16.5725 14.969 15.7258 13.6665 15.7258 12.2581C15.7258 10.23 17.4185 8.58066 19.5 8.58066C21.5815 8.58066 23.2742 10.23 23.2742 12.2581C23.2742 13.6665 22.4275 14.969 21.1166 15.5763L20.7581 15.7431V29.6124L21.1166 29.7785Z" fill="#363636"/>
<path d="M34.5257 9.19349L36.3417 6.12897L34.5257 3.06445H30.8943L29.0783 6.12897L30.8943 9.19349H34.5257ZM31.6202 4.29026H33.7992L34.8887 6.12897L33.7992 7.96768H31.6202L30.5307 6.12897L31.6202 4.29026Z" fill="#363636"/>
<path d="M30.8936 28.8065L29.0776 31.871L30.8936 34.9356H34.525L36.3411 31.871L34.525 28.8065H30.8936ZM33.7991 33.7097H31.6202L30.5307 31.871L31.6202 30.0323H33.7991L34.8886 31.871L33.7991 33.7097Z" fill="#363636"/>
<path d="M33.3387 26.3549H32.0806V27.5807H33.3387V26.3549Z" fill="#363636"/>
<path d="M33.3387 10.4194H32.0806V11.6452H33.3387V10.4194Z" fill="#363636"/>
<path d="M33.3387 12.871H32.0806V25.129H33.3387V12.871Z" fill="#363636"/>
</svg>
