<svg width="62" height="62" viewBox="0 0 62 62" fill="none" xmlns="http://www.w3.org/2000/svg">
<path d="M57.6598 28.0167L56.0542 21.5945C56.4931 21.5012 56.8225 21.1118 56.8225 20.6452V19.6097C56.8225 17.3615 54.9934 15.5325 52.7453 15.5325H45.4322V13.3967C45.4322 12.2904 44.5322 11.3904 43.4259 11.3904H6.14817C5.04186 11.3904 4.14189 12.2904 4.14189 13.3967V31.0001C4.14189 31.5362 4.5765 31.9709 5.1127 31.9709C5.64878 31.9709 6.08351 31.5363 6.08351 31.0001V13.3967C6.08351 13.3609 6.11245 13.332 6.14817 13.332H43.4258C43.4615 13.332 43.4905 13.3609 43.4905 13.3967V31.0003C43.4905 31.5364 43.9251 31.9711 44.4613 31.9711C44.9973 31.9711 45.4321 31.5365 45.4321 31.0003V29.8998H56.8838C56.8848 29.8998 56.8855 29.9001 56.8863 29.9001C56.8873 29.9001 56.8882 29.8999 56.889 29.8999C58.2982 29.9009 59.4947 30.8258 59.9057 32.1003H56.8871C56.351 32.1003 55.9163 32.5349 55.9163 33.0711V35.1421C55.9163 36.8194 57.2807 38.1838 58.958 38.1838H60.0583V42.4552H57.5199C56.686 40.0475 54.3973 38.3132 51.7096 38.3132C49.0219 38.3132 46.733 40.0475 45.8993 42.4552H45.4318V35.142C45.4318 34.6059 44.9972 34.1712 44.461 34.1712C43.9249 34.1712 43.4902 34.6058 43.4902 35.142V42.4549H23.3489C22.5151 40.0472 20.2263 38.3129 17.5386 38.3129C14.8509 38.3129 12.562 40.0472 11.7283 42.4549H6.14817C6.11245 42.4549 6.08351 42.426 6.08351 42.3903V40.2545H10.2902C10.8263 40.2545 11.261 39.8199 11.261 39.2837C11.261 38.7475 10.8264 38.3129 10.2902 38.3129H0.970809C0.434727 38.3129 0 38.7475 0 39.2837C0 39.8199 0.434606 40.2545 0.970809 40.2545H4.14201V42.3903C4.14201 43.4966 5.04198 44.3966 6.14829 44.3966H11.3921C11.3919 44.4181 11.3904 44.4395 11.3904 44.4612C11.3904 47.8514 14.1486 50.6094 17.5386 50.6094C20.9286 50.6094 23.6868 47.8514 23.6868 44.4612C23.6868 44.4394 23.6853 44.4181 23.6851 44.3966H45.5631C45.5629 44.4181 45.5614 44.4395 45.5614 44.4612C45.5614 47.8514 48.3196 50.6094 51.7096 50.6094C55.0996 50.6094 57.8577 47.8514 57.8577 44.4612C57.8577 44.4394 57.8563 44.4181 57.8561 44.3966H61.0291C61.5652 44.3966 61.9999 43.962 61.9999 43.4257V33.0709C62 30.5144 60.1137 28.3903 57.6598 28.0167ZM45.4322 17.474H52.7453C53.9229 17.474 54.881 18.4321 54.881 19.6097V19.6744H45.4322V17.474ZM45.4322 27.9583V21.6159H54.0583L55.6439 27.9583H45.4322ZM17.5386 48.6681C15.2191 48.6681 13.3319 46.7811 13.3319 44.4615C13.3319 42.1418 15.2191 40.2548 17.5386 40.2548C19.8582 40.2548 21.7453 42.1418 21.7453 44.4615C21.7453 46.7811 19.8582 48.6681 17.5386 48.6681ZM51.7098 48.6681C49.3903 48.6681 47.5031 46.7811 47.5031 44.4615C47.5031 42.1418 49.3903 40.2548 51.7098 40.2548C54.0294 40.2548 55.9165 42.1418 55.9165 44.4615C55.9165 46.7811 54.0294 48.6681 51.7098 48.6681ZM60.0585 36.2422H58.9583C58.3516 36.2422 57.858 35.7486 57.858 35.142V34.0417H60.0584V36.2422H60.0585Z" fill="#404040"/>
<path d="M17.5386 42.455C16.4323 42.455 15.5323 43.3549 15.5323 44.4612C15.5323 45.5676 16.4323 46.4675 17.5386 46.4675C18.6449 46.4675 19.5449 45.5676 19.5449 44.4612C19.5449 43.3549 18.6449 42.455 17.5386 42.455Z" fill="#404040"/>
<path d="M51.7098 42.455C50.6035 42.455 49.7036 43.3549 49.7036 44.4612C49.7036 45.5676 50.6035 46.4675 51.7098 46.4675C52.8161 46.4675 53.7161 45.5676 53.7161 44.4612C53.7161 43.3549 52.8161 42.455 51.7098 42.455Z" fill="#404040"/>
<path d="M40.3194 38.3131H25.8225C25.2864 38.3131 24.8517 38.7477 24.8517 39.2839C24.8517 39.8201 25.2863 40.2547 25.8225 40.2547H40.3194C40.8554 40.2547 41.2902 39.8201 41.2902 39.2839C41.2902 38.7477 40.8556 38.3131 40.3194 38.3131Z" fill="#404040"/>
<path d="M15.4677 34.1711H3.04178C2.5057 34.1711 2.07097 34.6057 2.07097 35.142C2.07097 35.6782 2.50557 36.1128 3.04178 36.1128H15.4677C16.0038 36.1128 16.4385 35.6782 16.4385 35.142C16.4385 34.6057 16.0038 34.1711 15.4677 34.1711Z" fill="#404040"/>
<path d="M33.7574 20.9938C33.3784 20.6148 32.7636 20.6148 32.3846 20.994L23.7516 29.6269L19.2606 25.1359C18.8814 24.7567 18.2668 24.7567 17.8877 25.1359C17.5086 25.515 17.5086 26.1296 17.8877 26.5087L23.0652 31.6862C23.2547 31.8758 23.5032 31.9705 23.7516 31.9705C23.9999 31.9705 24.2485 31.8758 24.4379 31.6862L33.7573 22.3668C34.1365 21.9875 34.1365 21.373 33.7574 20.9938Z" fill="#404040"/>
</svg>
