<svg width="61" height="56" viewBox="0 0 61 56" fill="none" xmlns="http://www.w3.org/2000/svg">
<g clip-path="url(#clip0)">
<path d="M56.8209 2.51562H3.25855C1.46174 2.51562 0 3.87811 0 5.55292V16.5502C0 17.0074 0.397865 17.3787 0.888779 17.3787C1.37969 17.3787 1.77756 17.0074 1.77756 16.5502V5.55292C1.77756 4.79199 2.4422 4.17249 3.25855 4.17249H56.8209C57.6377 4.17249 58.3019 4.79199 58.3019 5.55292V38.6893C58.3019 39.4506 57.6373 40.0697 56.8209 40.0697H38.4206C38.4806 39.6912 38.5122 39.3041 38.5122 38.9097C38.5122 38.5158 38.4806 38.1287 38.4206 37.7502H49.9477C50.4386 37.7502 50.8364 37.3793 50.8364 36.9218C50.8364 34.8206 52.6704 33.1111 54.9246 33.1111C55.4156 33.1111 55.8134 32.7403 55.8134 32.2827V18.1909C55.8134 17.7333 55.4156 17.3624 54.9246 17.3624C54.4337 17.3624 54.0359 17.7333 54.0359 18.1909V31.5171C51.5116 31.8764 49.5113 33.7405 49.1263 36.0933H37.9535C36.7338 33.1261 33.6471 31.0125 30.0397 31.0125C26.4324 31.0125 23.3457 33.1261 22.126 36.0933H10.9532C10.5682 33.7405 8.56785 31.8764 6.04361 31.5171V12.7251C8.56785 12.3658 10.5682 10.5017 10.9532 8.14886H49.1263C49.5118 10.5017 51.5116 12.3658 54.0359 12.7251V14.3273C54.0359 14.7849 54.4342 15.1557 54.9246 15.1557C55.4156 15.1557 55.8134 14.7849 55.8134 14.3273V11.9595C55.8134 11.5019 55.4156 11.131 54.9246 11.131C52.6704 11.131 50.8364 9.42163 50.8364 7.32043C50.8364 6.86285 50.4386 6.492 49.9477 6.492H10.1318C9.6409 6.492 9.24303 6.86285 9.24303 7.32043C9.24303 9.42163 7.40909 11.131 5.15483 11.131C4.66391 11.131 4.26605 11.5019 4.26605 11.9595V32.2827C4.26605 32.7403 4.66391 33.1111 5.15483 33.1111C7.40909 33.1111 9.24303 34.8206 9.24303 36.9218C9.24303 37.3793 9.6409 37.7502 10.1318 37.7502H21.6589C21.5989 38.1292 21.5672 38.5162 21.5672 38.9102C21.5672 39.3041 21.5989 39.6912 21.6589 40.0701H3.25855C2.44174 40.0701 1.77756 39.4506 1.77756 38.6893V20.4023C1.77756 19.9447 1.37969 19.5739 0.888779 19.5739C0.397865 19.5739 0 19.9447 0 20.4023V38.6893C0 40.3641 1.46174 41.7266 3.25855 41.7266H22.126C22.4258 42.4563 22.8387 43.1339 23.3443 43.7415V52.6064C23.3443 52.8824 23.4919 53.14 23.7376 53.2938C23.9833 53.4476 24.295 53.4775 24.5691 53.3733L30.0397 51.2917L35.5104 53.3733C35.6186 53.4143 35.7327 53.4348 35.8459 53.4348C36.0201 53.4348 36.1934 53.387 36.3419 53.2938C36.5876 53.14 36.7351 52.8824 36.7351 52.6064V50.2369C36.7351 49.7793 36.3368 49.4084 35.8464 49.4084C35.3555 49.4084 34.9576 49.7793 34.9576 50.2369V51.3734L30.3757 49.6302C30.1603 49.5486 29.9192 49.5486 29.7038 49.6302L25.1219 51.3734V45.3351C26.5098 46.2605 28.2072 46.8074 30.0397 46.8074C31.8723 46.8074 33.5696 46.2605 34.9576 45.3351V46.3656C34.9576 46.8232 35.3555 47.194 35.8464 47.194C36.3368 47.194 36.7351 46.8232 36.7351 46.3656V43.7415C37.2407 43.1339 37.6537 42.4563 37.9535 41.7266H56.8209C58.6177 41.7266 60.0795 40.3641 60.0795 38.6893V5.55292C60.0795 3.87811 58.6177 2.51563 56.8209 2.51563V2.51562ZM30.0397 45.1505C26.348 45.1505 23.3443 42.3512 23.3443 38.9102C23.3443 35.4691 26.348 32.6694 30.0397 32.6694C33.7314 32.6694 36.7351 35.4691 36.7351 38.9102C36.7351 42.3512 33.7314 45.1505 30.0397 45.1505Z" fill="#494949"/>
<path d="M37.8609 13.4506C38.3518 13.4506 38.7497 13.0797 38.7497 12.6221C38.7497 12.1646 38.3518 11.7937 37.8609 11.7937H22.2186C21.7276 11.7937 21.3298 12.1646 21.3298 12.6221C21.3298 13.0797 21.7276 13.4506 22.2186 13.4506H37.8609Z" fill="#494949"/>
<path d="M43.7858 16.2118H16.2937C15.8028 16.2118 15.4049 16.5826 15.4049 17.0402C15.4049 17.4978 15.8028 17.8687 16.2937 17.8687H43.7858C44.2767 17.8687 44.6746 17.4978 44.6746 17.0402C44.6746 16.5826 44.2767 16.2118 43.7858 16.2118Z" fill="#494949"/>
<path d="M43.7858 20.63H16.2937C15.8028 20.63 15.4049 21.0009 15.4049 21.4584C15.4049 21.916 15.8028 22.2869 16.2937 22.2869H43.7858C44.2767 22.2869 44.6746 21.916 44.6746 21.4584C44.6746 21.0009 44.2767 20.63 43.7858 20.63Z" fill="#494949"/>
<path d="M43.7858 25.7108H39.5198C39.0288 25.7108 38.631 26.0817 38.631 26.5392C38.631 26.9968 39.0288 27.3677 39.5198 27.3677H43.7858C44.2767 27.3677 44.6746 26.9968 44.6746 26.5392C44.6746 26.0817 44.2767 25.7108 43.7858 25.7108Z" fill="#494949"/>
<path d="M16.2937 25.7108C15.8028 25.7108 15.4049 26.0817 15.4049 26.5392C15.4049 26.9968 15.8028 27.3677 16.2937 27.3677H20.5597C21.0507 27.3677 21.4485 26.9968 21.4485 26.5392C21.4485 26.0817 21.0507 25.7108 20.5597 25.7108H16.2937Z" fill="#494949"/>
<path d="M30.0397 34.5471C27.4586 34.5471 25.3589 36.5043 25.3589 38.9102C25.3589 41.316 27.4586 43.2732 30.0397 43.2732C32.6208 43.2732 34.7206 41.316 34.7206 38.9102C34.7206 36.5043 32.6208 34.5471 30.0397 34.5471ZM30.0397 41.6163C28.4386 41.6163 27.1364 40.4021 27.1364 38.9102C27.1364 37.4178 28.4386 36.204 30.0397 36.204C31.6408 36.204 32.943 37.4178 32.943 38.9102C32.943 40.4021 31.6408 41.6163 30.0397 41.6163Z" fill="#494949"/>
<path d="M27.0182 26.5392C27.0182 28.0922 28.3736 29.3556 30.0397 29.3556C31.7059 29.3556 33.0613 28.0922 33.0613 26.5392C33.0613 24.9861 31.7059 23.7228 30.0397 23.7228C28.3736 23.7228 27.0182 24.9861 27.0182 26.5392ZM31.2842 26.5392C31.2842 27.1788 30.7259 27.6992 30.0397 27.6992C29.3536 27.6992 28.7953 27.1788 28.7953 26.5392C28.7953 25.8996 29.3536 25.3792 30.0397 25.3792C30.7259 25.3792 31.2842 25.8996 31.2842 26.5392Z" fill="#494949"/>
</g>
<defs>
<clipPath id="clip0">
<rect width="60.0795" height="56" fill="white"/>
</clipPath>
</defs>
</svg>
