<svg width="51" height="47" viewBox="0 0 51 47" fill="none" xmlns="http://www.w3.org/2000/svg">
<path d="M42.055 0H8.3689C7.0048 0 5.89508 1.03437 5.89508 2.30585V44.6942C5.89508 45.9656 7.0048 47 8.3689 47H34.4756C34.685 47 34.8859 46.9225 35.0339 46.7845L44.2976 38.1498C44.4457 38.0118 44.5288 37.8246 44.5288 37.6295V2.30585C44.5288 1.03437 43.4191 0 42.055 0ZM35.2651 44.4875V39.1994C35.2651 38.7395 35.6665 38.3653 36.1599 38.3653H41.8333L35.2651 44.4875ZM42.9498 36.8935H36.1599C34.7958 36.8935 33.6861 37.9279 33.6861 39.1994V45.5282H8.3689C7.8755 45.5282 7.47408 45.1541 7.47408 44.6942V2.30585C7.47408 1.84594 7.8755 1.47178 8.3689 1.47178H42.055C42.5484 1.47178 42.9498 1.84594 42.9498 2.30585V36.8935Z" fill="#454545"/>
<path d="M20.159 6.27979H13.4218C12.9858 6.27979 12.6323 6.60924 12.6323 7.01572C12.6323 7.4222 12.9857 7.75166 13.4218 7.75166H16.0009V14.8655C16.0009 15.2718 16.3544 15.6014 16.7905 15.6014C17.2265 15.6014 17.58 15.2719 17.58 14.8655V7.75166H20.1591C20.5951 7.75166 20.9487 7.4222 20.9487 7.01572C20.9487 6.60924 20.595 6.27979 20.159 6.27979Z" fill="#454545"/>
<path d="M28.4946 14.6539L26.1481 7.36363C25.9394 6.71536 25.3114 6.27979 24.5853 6.27979H24.1541C23.428 6.27979 22.7999 6.71536 22.5913 7.36363L20.2448 14.6539C20.1195 15.0433 20.3565 15.4535 20.7741 15.5703C21.1918 15.6873 21.6319 15.4662 21.7572 15.077L22.0936 14.0314H26.6454L26.982 15.0769C27.0846 15.3957 27.3983 15.6015 27.7379 15.6015C27.813 15.6015 27.8894 15.5914 27.9651 15.5703C28.3829 15.4535 28.6199 15.0433 28.4946 14.6539ZM22.5675 12.5595L24.1037 7.78654C24.1103 7.76598 24.131 7.75156 24.1541 7.75156H24.5853C24.6083 7.75156 24.6291 7.76588 24.6357 7.78654L26.1718 12.5595H22.5675Z" fill="#454545"/>
<path d="M36.8066 14.4433L34.1759 10.9405L36.8066 7.43774C37.0567 7.10479 36.9698 6.6459 36.6126 6.41282C36.2554 6.17975 35.7631 6.26063 35.5131 6.59366L33.2123 9.65729L30.9115 6.59366C30.6614 6.26063 30.169 6.17966 29.8119 6.41282C29.4546 6.6459 29.3677 7.10479 29.6179 7.43774L32.2486 10.9405L29.6181 14.4433C29.368 14.7763 29.4549 15.2352 29.8121 15.4682C29.9499 15.5582 30.1079 15.6012 30.2641 15.6012C30.513 15.6012 30.758 15.4918 30.9116 15.2873L33.2124 12.2237L35.5132 15.2873C35.6668 15.4918 35.9117 15.6012 36.1606 15.6012C36.3169 15.6012 36.475 15.5581 36.6126 15.4682C36.9698 15.2352 37.0568 14.7763 36.8066 14.4433Z" fill="#454545"/>
<path d="M13.4218 19.6241H11.7375C11.3015 19.6241 10.948 19.9536 10.948 20.3601C10.948 20.7666 11.3014 21.096 11.7375 21.096H13.4218C13.8578 21.096 14.2113 20.7666 14.2113 20.3601C14.2113 19.9536 13.8578 19.6241 13.4218 19.6241Z" fill="#454545"/>
<path d="M13.4218 22.7642H11.7375C11.3015 22.7642 10.948 23.0936 10.948 23.5001C10.948 23.9066 11.3014 24.236 11.7375 24.236H13.4218C13.8578 24.236 14.2113 23.9066 14.2113 23.5001C14.2113 23.0936 13.8578 22.7642 13.4218 22.7642Z" fill="#454545"/>
<path d="M13.4218 25.9039H11.7375C11.3015 25.9039 10.948 26.2334 10.948 26.6399C10.948 27.0463 11.3014 27.3758 11.7375 27.3758H13.4218C13.8578 27.3758 14.2113 27.0463 14.2113 26.6399C14.2113 26.2334 13.8578 25.9039 13.4218 25.9039Z" fill="#454545"/>
<path d="M38.6863 19.6241H37.002C36.5661 19.6241 36.2125 19.9536 36.2125 20.3601C36.2125 20.7666 36.566 21.096 37.002 21.096H38.6863C39.1223 21.096 39.4759 20.7666 39.4759 20.3601C39.4759 19.9536 39.1224 19.6241 38.6863 19.6241Z" fill="#454545"/>
<path d="M38.6863 22.7642H37.002C36.5661 22.7642 36.2125 23.0936 36.2125 23.5001C36.2125 23.9066 36.566 24.236 37.002 24.236H38.6863C39.1223 24.236 39.4759 23.9066 39.4759 23.5001C39.4759 23.0936 39.1224 22.7642 38.6863 22.7642Z" fill="#454545"/>
<path d="M38.6863 25.9039H37.002C36.5661 25.9039 36.2125 26.2334 36.2125 26.6399C36.2125 27.0463 36.566 27.3758 37.002 27.3758H38.6863C39.1223 27.3758 39.4759 27.0463 39.4759 26.6399C39.4759 26.2334 39.1224 25.9039 38.6863 25.9039Z" fill="#454545"/>
<path d="M26.8962 19.6241H16.7904C16.3544 19.6241 16.0009 19.9536 16.0009 20.3601C16.0009 20.7666 16.3543 21.096 16.7904 21.096H26.8963C27.3323 21.096 27.6858 20.7666 27.6858 20.3601C27.6858 19.9536 27.3323 19.6241 26.8962 19.6241Z" fill="#454545"/>
<path d="M23.5276 22.7642H16.7904C16.3544 22.7642 16.0009 23.0936 16.0009 23.5001C16.0009 23.9066 16.3543 24.236 16.7904 24.236H23.5276C23.9636 24.236 24.3172 23.9066 24.3172 23.5001C24.3172 23.0936 23.9636 22.7642 23.5276 22.7642Z" fill="#454545"/>
<path d="M26.8962 25.9039H16.7904C16.3544 25.9039 16.0009 26.2334 16.0009 26.6399C16.0009 27.0463 16.3543 27.3758 16.7904 27.3758H26.8963C27.3323 27.3758 27.6858 27.0463 27.6858 26.6399C27.6858 26.2334 27.3323 25.9039 26.8962 25.9039Z" fill="#454545"/>
<path d="M15.0535 35.542V32.9846C15.6352 33.1623 16.0009 33.5201 16.0009 33.8518C16.0009 34.2582 16.3543 34.5877 16.7904 34.5877C17.2265 34.5877 17.58 34.2583 17.58 33.8518C17.58 32.6783 16.5195 31.7223 15.0536 31.4666V31.3497C15.0536 30.9433 14.7001 30.6138 14.264 30.6138C13.8279 30.6138 13.4745 30.9432 13.4745 31.3497V31.4666C12.0085 31.7223 10.9481 32.6783 10.9481 33.8518C10.9481 35.4915 12.3529 36.1806 13.4745 36.5773V39.1346C12.8927 38.9569 12.5271 38.5991 12.5271 38.2674C12.5271 37.861 12.1736 37.5315 11.7375 37.5315C11.3014 37.5315 10.948 37.861 10.948 38.2674C10.948 39.441 12.0084 40.3969 13.4744 40.6527V40.7695C13.4744 41.1759 13.8278 41.5055 14.2639 41.5055C14.7 41.5055 15.0535 41.176 15.0535 40.7695V40.6527C16.5194 40.3969 17.5799 39.441 17.5799 38.2674C17.5799 36.6277 16.175 35.9385 15.0535 35.542ZM13.4744 34.9716C12.6873 34.6121 12.527 34.298 12.527 33.8518C12.527 33.5201 12.8926 33.1623 13.4744 32.9846V34.9716ZM15.0535 39.1344V37.1475C15.8406 37.507 16.0009 37.821 16.0009 38.2672C16.0009 38.599 15.6351 38.9568 15.0535 39.1344Z" fill="#454545"/>
<path d="M26.054 32.1837H20.159C19.723 32.1837 19.3694 32.5132 19.3694 32.9197C19.3694 33.3261 19.7229 33.6556 20.159 33.6556H26.054C26.49 33.6556 26.8436 33.3261 26.8436 32.9197C26.8436 32.5132 26.4901 32.1837 26.054 32.1837Z" fill="#454545"/>
<path d="M23.5276 38.4634H20.159C19.723 38.4634 19.3694 38.7928 19.3694 39.1993C19.3694 39.6057 19.7229 39.9352 20.159 39.9352H23.5276C23.9636 39.9352 24.3172 39.6058 24.3172 39.1993C24.3171 38.7929 23.9636 38.4634 23.5276 38.4634Z" fill="#454545"/>
<path d="M28.5806 38.4634H26.8963C26.4603 38.4634 26.1068 38.7928 26.1068 39.1993C26.1068 39.6057 26.4602 39.9352 26.8963 39.9352H28.5806C29.0166 39.9352 29.3701 39.6058 29.3701 39.1993C29.37 38.7929 29.0166 38.4634 28.5806 38.4634Z" fill="#454545"/>
<path d="M31.107 35.3236H20.159C19.723 35.3236 19.3694 35.6531 19.3694 36.0595C19.3694 36.4659 19.7229 36.7955 20.159 36.7955H31.107C31.543 36.7955 31.8965 36.466 31.8965 36.0595C31.8965 35.6531 31.543 35.3236 31.107 35.3236Z" fill="#454545"/>
<path d="M26.8962 24.236C27.3323 24.236 27.6858 23.9065 27.6858 23.5001C27.6858 23.0936 27.3323 22.7642 26.8962 22.7642C26.4602 22.7642 26.1067 23.0936 26.1067 23.5001C26.1067 23.9065 26.4602 24.236 26.8962 24.236Z" fill="#454545"/>
<path d="M30.2648 24.236C30.7009 24.236 31.0544 23.9065 31.0544 23.5001C31.0544 23.0936 30.7009 22.7642 30.2648 22.7642C29.8288 22.7642 29.4753 23.0936 29.4753 23.5001C29.4753 23.9065 29.8288 24.236 30.2648 24.236Z" fill="#454545"/>
<path d="M33.6334 24.236C34.0694 24.236 34.4229 23.9065 34.4229 23.5001C34.4229 23.0936 34.0694 22.7642 33.6334 22.7642C33.1973 22.7642 32.8438 23.0936 32.8438 23.5001C32.8438 23.9065 33.1973 24.236 33.6334 24.236Z" fill="#454545"/>
<path d="M30.2648 21.096C30.7009 21.096 31.0544 20.7665 31.0544 20.3601C31.0544 19.9536 30.7009 19.6241 30.2648 19.6241C29.8288 19.6241 29.4753 19.9536 29.4753 20.3601C29.4753 20.7665 29.8288 21.096 30.2648 21.096Z" fill="#454545"/>
<path d="M33.6334 21.096C34.0694 21.096 34.4229 20.7665 34.4229 20.3601C34.4229 19.9536 34.0694 19.6241 33.6334 19.6241C33.1973 19.6241 32.8438 19.9536 32.8438 20.3601C32.8438 20.7665 33.1973 21.096 33.6334 21.096Z" fill="#454545"/>
<path d="M30.2648 27.3758C30.7009 27.3758 31.0544 27.0463 31.0544 26.6399C31.0544 26.2334 30.7009 25.9039 30.2648 25.9039C29.8288 25.9039 29.4753 26.2334 29.4753 26.6399C29.4753 27.0463 29.8288 27.3758 30.2648 27.3758Z" fill="#454545"/>
<path d="M33.6334 27.3758C34.0694 27.3758 34.4229 27.0463 34.4229 26.6399C34.4229 26.2334 34.0694 25.9039 33.6334 25.9039C33.1973 25.9039 32.8438 26.2334 32.8438 26.6399C32.8438 27.0463 33.1973 27.3758 33.6334 27.3758Z" fill="#454545"/>
</svg>
