<svg width="47" height="43" viewBox="0 0 47 43" fill="none" xmlns="http://www.w3.org/2000/svg">
<g clip-path="url(#clip0)">
<path d="M46.1325 20.3681L45.8802 18.1363L43.77 17.3984L45.3765 15.9232L44.6324 13.7891L42.4024 13.4756L43.6443 11.7224L42.4404 9.77834L40.1895 9.90456L41.0132 7.94806L39.4023 6.28008L37.2289 6.83977L37.5987 4.76745L35.6507 3.44763L33.6492 4.41652L33.548 2.31645L31.3485 1.40374L29.6066 2.73674L29.0396 0.702565L26.6846 0.235806L25.2784 1.87882L24.2701 0H21.8623L20.8541 1.87952L19.4478 0.2365L17.0928 0.703258L16.5258 2.73674L14.784 1.40166L12.5845 2.31437L12.4833 4.41444L10.4817 3.44555L8.5345 4.76606L8.90431 6.83839L6.73087 6.27869L5.11921 7.94737L5.9429 9.90387L3.69208 9.77765L2.48818 11.7217L3.73003 13.475L1.50005 13.7884L0.755977 15.9225L2.36243 17.3977L0.25224 18.1363L0 20.3681L1.9011 21.5L0 22.6319L0.25224 24.8637L2.36243 25.6016L0.755977 27.0768L1.50005 29.2109L3.73003 29.5244L2.48818 31.2776L3.69208 33.2217L5.9429 33.0954L5.11921 35.0526L6.73013 36.7206L8.90356 36.1609L8.53376 38.2332L10.4817 39.5531L12.4833 38.5842L12.5845 40.6842L14.784 41.597L16.5258 40.2619L17.0928 42.296L19.4478 42.7628L20.8541 41.1198L21.8623 43H24.2701L25.2784 41.1205L26.6846 42.7635L29.0396 42.2967L29.6066 40.2626L31.3485 41.5976L33.548 40.6849L33.6492 38.5849L35.6507 39.5538L37.5987 38.2339L37.2289 36.1616L39.4023 36.7213L41.0132 35.0533L40.1895 33.0968L42.4404 33.223L43.6443 31.279L42.4024 29.5257L44.6324 29.2123L45.3765 27.0782L43.77 25.603L45.8802 24.8651L46.1325 22.6319L44.2313 21.5L46.1325 20.3681ZM44.4962 19.1336L44.5558 19.6614L43.1279 20.5117C43.0914 19.8584 43.0178 19.2141 42.9106 18.5795L44.4962 19.1336ZM43.4999 15.0327L43.6755 15.5376L42.4672 16.6465C42.2856 16.0161 42.0683 15.3995 41.8198 14.7969L43.4999 15.0327ZM41.6115 11.214L41.8957 11.6731L40.9567 12.9978C40.6375 12.4166 40.2878 11.8534 39.9075 11.309L41.6115 11.214ZM38.912 7.84473L39.2922 8.23866L38.6679 9.72008C38.2274 9.21448 37.7616 8.72831 37.2683 8.26779L38.912 7.84473ZM35.519 5.07261L35.9788 5.38402L35.6991 6.95421C35.1574 6.54432 34.5912 6.16218 34.0048 5.80569L35.519 5.07261ZM31.5829 3.01832L32.1022 3.23402L32.1781 4.82016C31.5598 4.5254 30.9229 4.25908 30.2696 4.02466L31.5829 3.01832ZM27.2747 1.77132L27.8305 1.8816L28.2576 3.41156C27.5902 3.24511 26.9108 3.10848 26.2181 3.00653L27.2747 1.77132ZM22.782 1.3871H23.3505L24.1079 2.79916C23.7627 2.78252 23.4159 2.77419 23.0662 2.77419C22.7165 2.77419 22.3698 2.78252 22.0245 2.79916L22.782 1.3871ZM18.3019 1.8816L18.8578 1.77132L19.9143 3.00653C19.2224 3.10848 18.5423 3.24511 17.8748 3.41156L18.3019 1.8816ZM14.0295 3.23402L14.5496 3.01832L15.8621 4.02466C15.2088 4.25977 14.5726 4.5254 13.9536 4.82016L14.0295 3.23402ZM10.6127 5.07261L12.1269 5.80569C11.5406 6.16218 10.9743 6.54432 10.4326 6.95421L10.1529 5.38402L10.6127 5.07261ZM7.22047 7.84542L8.86413 8.26848C8.37006 8.729 7.90502 9.21518 7.46453 9.72077L6.84025 8.23936L7.22047 7.84542ZM4.52098 11.214L6.2249 11.3097C5.84468 11.8534 5.49497 12.4173 5.17576 12.9985L4.23674 11.6738L4.52098 11.214ZM2.63253 15.0327L4.31264 14.7969C4.06412 15.3995 3.84685 16.0161 3.6653 16.6465L2.45693 15.5376L2.63253 15.0327ZM1.57669 19.6614L1.63621 19.1336L3.22257 18.5788C3.11543 19.2134 3.04177 19.8577 3.00531 20.511L1.57669 19.6614ZM1.63621 23.8664L1.57669 23.3386L3.00456 22.4883C3.04102 23.1416 3.11468 23.7859 3.22183 24.4205L1.63621 23.8664ZM2.63253 27.9673L2.45693 27.4624L3.6653 26.3535C3.84685 26.9839 4.06412 27.6005 4.31264 28.2031L2.63253 27.9673ZM4.52098 31.786L4.23674 31.3269L5.17576 30.0022C5.49497 30.5834 5.84468 31.1466 6.2249 31.691L4.52098 31.786ZM7.22047 35.1553L6.84025 34.7613L7.46453 33.2799C7.90502 33.7855 8.37081 34.2717 8.86413 34.7322L7.22047 35.1553ZM10.6134 37.9274L10.1536 37.616L10.4334 36.0458C10.9751 36.4557 11.5413 36.8378 12.1276 37.1943L10.6134 37.9274ZM14.5496 39.9817L14.0302 39.766L13.9543 38.1798C14.5726 38.4746 15.2096 38.7409 15.8629 38.9753L14.5496 39.9817ZM18.8578 41.2287L18.3019 41.1184L17.8748 39.5884C18.5423 39.7549 19.2216 39.8915 19.9143 39.9935L18.8578 41.2287ZM23.3505 41.6129H22.782L22.0245 40.2008C22.3698 40.2175 22.7165 40.2258 23.0662 40.2258C23.4159 40.2258 23.7627 40.2175 24.1079 40.2008L23.3505 41.6129ZM27.8305 41.1184L27.2747 41.2287L26.2181 39.9935C26.9101 39.8915 27.5902 39.7549 28.2576 39.5884L27.8305 41.1184ZM32.103 39.766L31.5829 39.9817L30.2703 38.9753C30.9236 38.7402 31.5598 38.4746 32.1789 38.1798L32.103 39.766ZM35.5198 37.9274L34.0056 37.1943C34.5919 36.8378 35.1581 36.4557 35.6998 36.0458L35.9796 37.616L35.5198 37.9274ZM38.912 35.1546L37.2683 34.7315C37.7624 34.271 38.2274 33.7848 38.6679 33.2792L39.2922 34.7606L38.912 35.1546ZM23.0662 38.8387C12.8092 38.8387 4.46443 31.0606 4.46443 21.5C4.46443 11.9394 12.8092 4.16129 23.0662 4.16129C33.3233 4.16129 41.668 11.9394 41.668 21.5C41.668 31.0606 33.3233 38.8387 23.0662 38.8387ZM41.6115 31.786L39.9075 31.6903C40.2878 31.1466 40.6375 30.5827 40.9567 30.0015L41.8957 31.3262L41.6115 31.786ZM43.4999 27.9673L41.8198 28.2031C42.0683 27.6005 42.2856 26.9839 42.4672 26.3535L43.6755 27.4624L43.4999 27.9673ZM44.5558 23.3386L44.4962 23.8664L42.9099 24.4212C43.017 23.7866 43.0907 23.1423 43.1271 22.489L44.5558 23.3386Z" fill="#363636"/>
<path d="M23.0662 9.70972C16.0913 9.70972 10.417 14.9987 10.417 21.5C10.417 28.0014 16.0913 33.2904 23.0662 33.2904C26.6132 33.2904 30.0196 31.8887 32.4118 29.4453L31.312 28.5104C29.2018 30.6667 26.1958 31.9033 23.0662 31.9033C16.912 31.9033 11.9052 27.2364 11.9052 21.5C11.9052 15.7637 16.912 11.0968 23.0662 11.0968C29.2204 11.0968 34.2273 15.7637 34.2273 21.5C34.2273 23.6015 33.5584 25.626 32.2935 27.3543L33.5227 28.1359C34.9572 26.1759 35.7154 23.8817 35.7154 21.5C35.7154 14.9987 30.0412 9.70972 23.0662 9.70972Z" fill="#363636"/>
<path d="M26.7866 21.5C26.7866 19.5879 25.1176 18.0322 23.0662 18.0322C21.0148 18.0322 19.3459 19.5879 19.3459 21.5C19.3459 23.4121 21.0148 24.9677 23.0662 24.9677C25.1176 24.9677 26.7866 23.4121 26.7866 21.5ZM20.834 21.5C20.834 20.3528 21.8355 19.4193 23.0662 19.4193C24.2969 19.4193 25.2984 20.3528 25.2984 21.5C25.2984 22.6471 24.2969 23.5806 23.0662 23.5806C21.8355 23.5806 20.834 22.6471 20.834 21.5Z" fill="#363636"/>
<path d="M25.2985 14.5645C25.2985 13.4174 24.2969 12.4839 23.0662 12.4839C21.8355 12.4839 20.834 13.4174 20.834 14.5645C20.834 15.7117 21.8355 16.6452 23.0662 16.6452C24.2969 16.6452 25.2985 15.7117 25.2985 14.5645ZM22.3222 14.5645C22.3222 14.1817 22.6563 13.871 23.0662 13.871C23.4762 13.871 23.8103 14.1817 23.8103 14.5645C23.8103 14.9474 23.4762 15.2581 23.0662 15.2581C22.6563 15.2581 22.3222 14.9474 22.3222 14.5645Z" fill="#363636"/>
<path d="M18.1129 19.9998C18.2975 19.4713 18.2498 18.9075 17.979 18.4123C17.7082 17.9171 17.2468 17.5502 16.6798 17.3782C16.1121 17.2062 15.5079 17.2506 14.9759 17.5031C14.4447 17.7555 14.0503 18.1855 13.8665 18.7147C13.682 19.2432 13.7296 19.807 14.0004 20.3022C14.2713 20.7974 14.7326 21.1643 15.2996 21.3356C15.5273 21.4043 15.7602 21.4382 15.9923 21.4382C16.3398 21.4382 16.6843 21.362 17.0028 21.2108C17.534 20.9583 17.9284 20.529 18.1129 19.9998ZM16.697 19.5712C16.6352 19.7474 16.5042 19.8909 16.3272 19.9749C16.1516 20.0581 15.9492 20.0747 15.7594 20.0165C15.5704 19.9596 15.4172 19.8368 15.3264 19.6725C15.2356 19.5074 15.22 19.3195 15.2817 19.1426C15.3435 18.9664 15.4745 18.8229 15.6515 18.739C15.7579 18.689 15.8725 18.6634 15.9886 18.6634C16.066 18.6634 16.1434 18.6752 16.2193 18.698H16.22C16.409 18.7549 16.5623 18.8777 16.6531 19.0427C16.7431 19.2071 16.7587 19.3951 16.697 19.5712Z" fill="#363636"/>
<path d="M17.3808 28.7939C17.7662 29.0554 18.2201 29.192 18.6881 29.192C18.8057 29.192 18.924 29.183 19.0423 29.1657C19.6316 29.079 20.1487 28.7835 20.4992 28.3341C20.8496 27.8847 20.9917 27.3347 20.898 26.7861C20.805 26.2368 20.488 25.7548 20.0051 25.4275C19.0088 24.7533 17.6092 24.9614 16.8874 25.8887C16.1635 26.8166 16.3852 28.1198 17.3808 28.7939ZM18.0906 26.7036C18.2364 26.5163 18.4634 26.4178 18.694 26.4178C18.8458 26.4178 18.9984 26.4608 19.1301 26.5489C19.4619 26.7736 19.5356 27.2085 19.2945 27.5178C19.0527 27.8271 18.5862 27.8958 18.2558 27.6711C17.9232 27.4471 17.8495 27.0122 18.0906 26.7036Z" fill="#363636"/>
<path d="M27.0909 29.1659C27.2092 29.1832 27.3268 29.1923 27.4451 29.1923C27.9124 29.1923 28.367 29.0556 28.7524 28.7942C29.748 28.12 29.9697 26.8169 29.2465 25.8889C28.5233 24.9609 27.1244 24.7529 26.1281 25.4284C25.6459 25.755 25.3289 26.237 25.2352 26.7863C25.1422 27.3349 25.2836 27.8849 25.634 28.3343C25.9845 28.7838 26.5016 29.0792 27.0909 29.1659ZM27.0024 26.5498C27.1341 26.4604 27.2873 26.4181 27.4384 26.4181C27.6691 26.4181 27.8967 26.5172 28.0418 26.7038C28.2829 27.0124 28.2093 27.4473 27.8767 27.672C27.5448 27.8946 27.079 27.828 26.8379 27.518C26.5968 27.208 26.6705 26.7739 27.0024 26.5498Z" fill="#363636"/>
<path d="M30.8329 21.3355C31.3998 21.1635 31.8612 20.7966 32.132 20.3021C32.4029 19.8069 32.4505 19.2431 32.2659 18.7146C32.0814 18.1854 31.6878 17.7554 31.1565 17.503C30.626 17.2512 30.0211 17.2061 29.4533 17.3781C28.8864 17.5494 28.4243 17.917 28.1535 18.4122C27.8826 18.9074 27.835 19.4713 28.0195 20.0004C28.204 20.5289 28.5977 20.9582 29.1289 21.2107C29.4474 21.3619 29.7926 21.4382 30.1394 21.4382C30.3723 21.4382 30.6052 21.4035 30.8329 21.3355ZM29.4355 19.5718C29.3737 19.395 29.3894 19.2077 29.4801 19.042C29.5702 18.8769 29.7242 18.7541 29.9139 18.6973C29.9898 18.6744 30.0672 18.6626 30.1446 18.6626C30.2607 18.6626 30.3753 18.6882 30.4817 18.7382C30.6587 18.8221 30.7904 18.9657 30.8515 19.1418C30.9132 19.3187 30.8976 19.5059 30.8068 19.6717C30.7168 19.8361 30.5628 19.9588 30.3738 20.0157H30.373C30.184 20.0733 29.9824 20.0594 29.8053 19.9748C29.6282 19.8909 29.4965 19.7473 29.4355 19.5718Z" fill="#363636"/>
</g>
<defs>
<clipPath id="clip0">
<rect width="46.1325" height="43" fill="white"/>
</clipPath>
</defs>
</svg>
