<svg width="72" height="66" viewBox="0 0 72 66" fill="none" xmlns="http://www.w3.org/2000/svg">
<g clip-path="url(#clip0)">
<path d="M53.0078 47.8866C52.4007 48.1507 51.7758 48.3941 51.1361 48.6348C50.9061 48.7213 50.6734 48.8077 50.4387 48.8949C48.9179 49.4595 47.3151 50.0547 45.8312 50.911C45.8051 50.9058 45.774 50.8976 45.7395 50.8857C45.6919 50.8693 45.6445 50.8482 45.6014 50.824C45.5771 50.8104 45.5561 50.7969 45.5383 50.7841C45.6251 50.4013 45.6605 50.0474 45.6484 49.7154L45.6484 49.7154L45.648 49.7067C45.6163 49.0055 45.3582 48.437 44.9328 48.0025C44.5371 47.5983 44.0465 47.3622 43.6343 47.2008C43.4025 47.11 43.098 47.01 42.8385 46.9247C42.724 46.8871 42.6183 46.8524 42.5314 46.8226C42.6463 46.7582 42.7597 46.7025 42.8962 46.6354C42.9784 46.595 43.069 46.5505 43.1733 46.4975C43.4373 46.3634 43.7668 46.1841 44.0625 45.9316L44.0628 45.9314C44.4955 45.5617 44.8336 45.0516 44.9245 44.3489L45.0482 43.3921L44.0964 43.2341C43.4772 43.1314 42.8581 43.076 42.2847 43.0247L42.2342 43.0202C41.6332 42.9664 41.0824 42.9156 40.5503 42.8227C39.5098 42.6411 38.6093 42.3096 37.8063 41.5404L37.8055 41.5397C37.3603 41.1142 36.8484 40.8442 36.279 40.7791C35.7199 40.7151 35.2143 40.8613 34.7944 41.0704C34.0127 41.4598 33.3194 42.1825 32.8184 42.7047L32.8016 42.7223L32.8003 42.7236C32.698 42.8306 32.5973 42.937 32.4979 43.0426L31.3494 41.4128C30.9488 40.8443 30.5719 40.3344 30.2188 39.8568C29.4987 38.8825 28.878 38.0428 28.3585 37.115L28.3581 37.1142C27.2489 35.1371 25.4075 33.5753 23.3652 32.8103C21.3145 32.0421 18.9771 32.0546 17.0019 33.3873C14.8082 34.8644 12.6065 35.1977 10.3204 35.1027C9.16421 35.0547 7.99877 34.8977 6.79234 34.7227C6.65805 34.7032 6.52309 34.6835 6.38757 34.6637C5.32129 34.5078 4.21964 34.3468 3.12203 34.2605C2.42828 34.2057 2.0014 33.9787 1.74052 33.707C1.47711 33.4327 1.2908 33.0167 1.2592 32.4166C1.19398 31.1782 1.8112 29.3482 3.35526 27.3398L3.35658 27.3381C4.1017 26.3645 4.91043 25.4916 5.79518 25.0757L5.79519 25.0757L5.79877 25.074C6.91521 24.5437 7.79833 23.8089 8.04986 22.7535C8.30197 21.6957 7.82802 20.7021 7.18312 19.8816C6.75274 19.3298 6.61815 18.9879 6.58727 18.8089C6.56677 18.6901 6.5871 18.6528 6.63422 18.5954C6.72046 18.4904 6.91001 18.345 7.28295 18.1678C7.64658 17.995 8.08175 17.8377 8.5948 17.6529C11.2565 16.7061 14.0489 16.8499 16.7623 17.4777C20.4945 18.3542 24.229 18.7923 27.9865 19.0948L27.9886 19.0949C28.0948 19.1032 28.2017 19.112 28.309 19.1208C29.3037 19.202 30.3406 19.2868 31.358 19.0922C32.5525 18.8637 33.6663 18.272 34.8297 17.0787C35.4079 16.4857 36.4996 16.145 38.0854 15.9057C38.6395 15.822 39.2072 15.7559 39.795 15.6875C40.0205 15.6612 40.249 15.6346 40.4809 15.6065C41.2987 15.5075 42.1426 15.3916 42.9322 15.2109C43.8044 15.0119 44.3374 15.0695 44.6803 15.1927C45.0148 15.3129 45.2811 15.5358 45.5504 15.8927C45.7708 16.185 45.9502 16.5029 46.1669 16.8869C46.2397 17.016 46.3167 17.1525 46.401 17.298C46.7098 17.8316 47.1005 18.4529 47.6712 18.9612C48.1748 19.412 48.6594 19.9296 49.1953 20.502C49.285 20.5978 49.3762 20.6951 49.4691 20.7939C50.1019 21.467 50.8005 22.19 51.6021 22.838C53.2391 24.1614 55.3032 25.168 58.2246 25.0343L58.2258 25.0343C59.9375 24.9537 61.7289 25.4384 63.6594 26.1393C64.2995 26.3717 64.9685 26.6341 65.652 26.9021C66.9492 27.4108 68.2986 27.9399 69.6019 28.3239C69.8099 28.3854 69.9155 28.4652 69.9677 28.5184C70.02 28.5718 70.0451 28.6251 70.0569 28.6744C70.0694 28.7266 70.067 28.7755 70.0592 28.8091C69.3108 29.4882 69.0563 30.3167 68.9982 31.0913C68.9575 31.6341 69.0147 32.2393 69.0613 32.7308C69.0757 32.8837 69.0892 33.0255 69.0983 33.1511C69.1432 33.7691 69.1135 34.1703 68.9719 34.4721C68.8547 34.7217 68.5913 35.0456 67.8133 35.3221C65.7287 36.0584 63.7576 37.0591 61.8515 38.0268C61.368 38.2723 60.8886 38.5157 60.4126 38.7521C58.0272 39.9368 55.6725 40.9779 53.0562 41.4526C52.6604 41.5226 51.7556 41.7605 50.9923 42.2852C50.602 42.5535 50.1899 42.937 49.9358 43.4705C49.669 44.0308 49.6159 44.6755 49.828 45.3592L53.0078 47.8866ZM53.0078 47.8866C52.6642 47.8515 52.325 47.7842 52.0001 47.6726C50.9914 47.326 50.2073 46.5815 49.828 45.3592L53.0078 47.8866ZM70.0514 28.8335C70.0513 28.8335 70.0518 28.8321 70.0533 28.8293C70.0522 28.8321 70.0516 28.8335 70.0514 28.8335ZM32.3897 43.1578C32.307 43.2458 32.2253 43.3333 32.1442 43.42C31.1701 44.4615 30.294 45.3983 29.2266 46.0449C28.2702 46.6242 27.1546 46.9642 25.671 46.7599C25.7962 46.4972 25.9101 46.2395 26.0175 45.9966L26.0377 45.9509C26.3344 45.28 26.5859 44.721 26.9136 44.2501C27.2258 43.8015 27.5877 43.4643 28.087 43.2454C28.5969 43.022 29.3321 42.8862 30.4435 42.9849L32.3897 43.1578Z" stroke="#3A3A3A" stroke-width="2"/>
</g>
<defs>
<clipPath id="clip0">
<rect x="0.258301" width="70.8079" height="66" fill="white"/>
</clipPath>
</defs>
</svg>
