<svg width="35" height="35" viewBox="0 0 35 35" fill="none" xmlns="http://www.w3.org/2000/svg">
<path d="M17.4994 0C10.3951 0 4.61456 5.7805 4.61456 12.8856C4.61456 14.7389 4.99389 16.5083 5.74143 18.1453C8.96301 25.1949 15.1397 32.6377 16.9564 34.7507C17.0925 34.9087 17.291 34.9996 17.4998 34.9996C17.7086 34.9996 17.9071 34.9087 18.0432 34.7507C19.8592 32.6381 26.0359 25.1956 29.2585 18.1453C30.0064 16.5083 30.3854 14.7389 30.3854 12.8856C30.3847 5.7805 24.6042 0 17.4994 0ZM17.4994 19.5784C13.809 19.5784 10.8063 16.5757 10.8063 12.8852C10.8063 9.19443 13.809 6.1917 17.4994 6.1917C21.1899 6.1917 24.1926 9.19443 24.1926 12.8852C24.193 16.5757 21.1903 19.5784 17.4994 19.5784Z" fill="#3C3C3C"/>
</svg>
