<svg width="199" height="199" viewBox="0 0 199 199" fill="none" xmlns="http://www.w3.org/2000/svg">
<path d="M186.749 100.555C186.749 148.939 147.682 188.156 99.4998 188.156C51.3172 188.156 12.2507 148.939 12.2507 100.555C12.2507 52.1705 51.3172 12.9541 99.4998 12.9541C147.682 12.9541 186.749 52.1705 186.749 100.555Z" stroke="#C8C8C8" stroke-opacity="0.78" stroke-width="2"/>
<circle cx="99.5" cy="99.5" r="98.5" stroke="#C8C8C8" stroke-opacity="0.78" stroke-width="2"/>
<path d="M177.608 100.555C177.608 143.494 142.642 178.311 99.4999 178.311C56.3579 178.311 21.3921 143.494 21.3921 100.555C21.3921 57.6154 56.3579 22.7986 99.4999 22.7986C142.642 22.7986 177.608 57.6154 177.608 100.555Z" stroke="#C8C8C8" stroke-opacity="0.78" stroke-width="2"/>
<circle cx="100.203" cy="100.203" r="67.5601" stroke="#C8C8C8" stroke-opacity="0.78" stroke-width="2"/>
</svg>
