<svg width="235" height="235" viewBox="0 0 235 235" fill="none" xmlns="http://www.w3.org/2000/svg">
<path d="M220.714 118.746C220.714 175.982 174.5 222.375 117.5 222.375C60.5004 222.375 14.2862 175.982 14.2862 118.746C14.2862 61.5092 60.5004 15.1167 117.5 15.1167C174.5 15.1167 220.714 61.5092 220.714 118.746Z" stroke="#E2DBDB" stroke-opacity="0.78" stroke-width="2"/>
<circle cx="117.5" cy="117.5" r="116.5" stroke="#E2DBDB" stroke-opacity="0.78" stroke-width="2"/>
<path d="M209.919 118.745C209.919 169.553 168.546 210.749 117.5 210.749C66.4543 210.749 25.0813 169.553 25.0813 118.745C25.0813 67.9375 66.4543 26.7419 117.5 26.7419C168.546 26.7419 209.919 67.9375 209.919 118.745Z" stroke="#E2DBDB" stroke-opacity="0.78" stroke-width="2"/>
<circle cx="118.33" cy="118.33" r="79.9629" stroke="#E2DBDB" stroke-opacity="0.78" stroke-width="2"/>
</svg>
