<svg width="299" height="297" viewBox="0 0 299 297" fill="none" xmlns="http://www.w3.org/2000/svg">
<circle cx="149.5" cy="149.5" r="131.25" stroke="#FFF8F8" stroke-opacity="0.2" stroke-width="2"/>
<path d="M298 148.062C298 229.274 231.523 295.125 149.5 295.125C67.4766 295.125 1 229.274 1 148.062C1 66.8512 67.4766 1 149.5 1C231.523 1 298 66.8512 298 148.062Z" stroke="#FFF8F8" stroke-opacity="0.2" stroke-width="2"/>
<path d="M267.812 150.219C267.812 214.353 214.859 266.375 149.5 266.375C84.1405 266.375 31.1875 214.353 31.1875 150.219C31.1875 86.0845 84.1405 34.0625 149.5 34.0625C214.859 34.0625 267.812 86.0845 267.812 150.219Z" stroke="#FFF8F8" stroke-opacity="0.2" stroke-width="2"/>
<path d="M253.438 149.5C253.438 205.302 207.56 250.562 150.938 250.562C94.3151 250.562 48.4375 205.302 48.4375 149.5C48.4375 93.6979 94.3151 48.4375 150.938 48.4375C207.56 48.4375 253.438 93.6979 253.438 149.5Z" stroke="#FFF8F8" stroke-opacity="0.2" stroke-width="2"/>
</svg>
