<svg width="208" height="206" viewBox="0 0 208 206" fill="none" xmlns="http://www.w3.org/2000/svg">
<circle cx="104" cy="104" r="91" stroke="#D0D0D0" stroke-opacity="0.38" stroke-width="2"/>
<path d="M207 103C207 159.324 160.894 205 104 205C47.1055 205 1 159.324 1 103C1 46.676 47.1055 1 104 1C160.894 1 207 46.676 207 103Z" stroke="#D0D0D0" stroke-opacity="0.38" stroke-width="2"/>
<path d="M186 104.5C186 148.942 149.305 185 104 185C58.6954 185 22 148.942 22 104.5C22 60.0582 58.6954 24 104 24C149.305 24 186 60.0582 186 104.5Z" stroke="#D0D0D0" stroke-opacity="0.38" stroke-width="2"/>
<path d="M176 104C176 142.647 144.225 174 105 174C65.7745 174 34 142.647 34 104C34 65.3532 65.7745 34 105 34C144.225 34 176 65.3532 176 104Z" stroke="#D0D0D0" stroke-opacity="0.38" stroke-width="2"/>
</svg>
