<svg width="23" height="24" viewBox="0 0 23 24" fill="none" xmlns="http://www.w3.org/2000/svg">
<g clip-path="url(#clip0)">
<path d="M0.480097 4.46044C3.63676 7.25002 9.17571 12.1577 10.8037 13.688C11.0222 13.8945 11.2566 13.9995 11.5 13.9995C11.7428 13.9995 11.9768 13.8955 12.1949 13.6899C13.8242 12.1582 19.3632 7.25002 22.5199 4.46044C22.7164 4.28709 22.7464 3.98241 22.5873 3.77048C22.2195 3.28078 21.671 3 21.0833 3H1.91665C1.32894 3 0.780489 3.28078 0.412714 3.77053C0.2536 3.98241 0.283563 4.28709 0.480097 4.46044Z" fill="#3C3C3C"/>
<path d="M22.7221 5.9724C22.5523 5.8899 22.3525 5.91868 22.2111 6.04468C20.1438 7.87327 17.4199 10.2893 15.3657 12.133C15.2576 12.2297 15.1968 12.3718 15.1991 12.5207C15.2015 12.6692 15.2675 12.8093 15.3788 12.9021C17.2876 14.4973 20.1639 16.6916 22.2411 18.2512C22.3239 18.3137 22.4222 18.3454 22.5209 18.3454C22.5958 18.3454 22.6706 18.3274 22.7395 18.2903C22.8995 18.2048 23.0001 18.0329 23.0001 17.8454V6.42601C23 6.23119 22.8915 6.05396 22.7221 5.9724Z" fill="#3C3C3C"/>
<path d="M0.759 18.2508C2.83664 16.6912 5.71352 14.4969 7.62176 12.9016C7.73312 12.8089 7.79911 12.6687 7.80145 12.5203C7.80378 12.3714 7.74296 12.2293 7.63488 12.1326C5.5806 10.2889 2.85627 7.87284 0.788963 6.04425C0.646695 5.91825 0.446434 5.89045 0.277977 5.97196C0.108576 6.05353 0 6.23076 0 6.42557V17.845C0 18.0325 0.100625 18.2044 0.260637 18.2899C0.329412 18.327 0.404297 18.345 0.479182 18.345C0.57792 18.345 0.676164 18.3133 0.759 18.2508Z" fill="#3C3C3C"/>
<path d="M22.4127 19.6118C20.4067 18.1142 16.7114 15.3222 14.5056 13.454C14.3259 13.3012 14.0657 13.3061 13.8888 13.4653C13.456 13.8593 13.0938 14.1914 12.8369 14.4326C12.0479 15.1757 10.9529 15.1757 10.1621 14.4316C9.90618 14.1909 9.54402 13.8578 9.11115 13.4652C8.93569 13.3051 8.67505 13.3002 8.49487 13.454C6.29648 15.3158 2.59698 18.1112 0.587674 19.6117C0.475818 19.6957 0.403764 19.8251 0.389748 19.9682C0.376182 20.1112 0.421553 20.2533 0.515619 20.3588C0.878318 20.7665 1.3893 21.0004 1.91669 21.0004H21.0834C21.6108 21.0004 22.1212 20.7665 22.4848 20.3588C22.5784 20.2538 22.6243 20.1117 22.6107 19.9687C22.5967 19.8257 22.5246 19.6958 22.4127 19.6118Z" fill="#3C3C3C"/>
</g>
<defs>
<clipPath id="clip0">
<rect width="23" height="24" fill="white"/>
</clipPath>
</defs>
</svg>
