<svg width="406" height="160" viewBox="0 0 406 160" fill="none" xmlns="http://www.w3.org/2000/svg">
<path d="M36.5881 26.5553L57.3773 26.712C57.4463 17.552 55.306 10.8846 50.9564 6.70965C46.687 2.45568 39.6935 0.292073 29.976 0.218829C20.5771 0.147988 13.5506 2.36524 8.89658 6.87058C4.24256 11.3759 1.88282 17.9696 1.81738 26.6517C1.77956 31.6697 2.58529 35.7383 4.23456 38.8573C5.96349 41.9769 8.09518 44.5022 10.6296 46.433C13.2437 48.3645 16.0597 49.939 19.0774 51.1566C22.0952 52.3742 24.874 53.59 27.4139 54.804C30.034 55.9389 32.1741 57.349 33.8342 59.0343C35.5745 60.6406 36.4341 62.8376 36.4131 65.6254C36.3957 67.9353 35.7438 69.882 34.4574 71.4654C33.2506 73.0495 31.4922 73.8328 29.1823 73.8154C27.0317 73.7992 25.2848 73.0691 23.9415 71.6251C22.5988 70.1016 21.9413 67.5078 21.9689 63.8438L21.9842 61.8127L0.478227 61.6506L0.455713 64.6375C0.422093 69.098 1.03109 72.8465 2.28271 75.8828C3.53432 78.9192 5.34771 81.4022 7.72285 83.3319C10.1783 85.1825 13.1556 86.4794 16.6549 87.2227C20.2332 88.0462 24.3323 88.4754 28.9521 88.5102C38.7493 88.5841 46.2518 86.6094 51.4598 82.5862C56.6684 78.4833 59.3069 71.8917 59.3754 62.8114C59.4144 57.634 58.5299 53.4454 56.7219 50.2455C54.9942 46.9666 52.7838 44.3212 50.0906 42.3095C47.3975 40.2978 44.5022 38.6829 41.4048 37.4647C38.3079 36.1668 35.41 34.9103 32.7108 33.6951C30.0116 32.4799 27.7521 31.0689 25.9321 29.4621C24.1924 27.7762 23.333 25.5393 23.354 22.7515C23.3684 20.8399 23.9389 19.1316 25.0654 17.6266C26.1926 16.0419 27.9509 15.2586 30.3405 15.2766C32.4911 15.2928 34.0772 16.2208 35.0989 18.0606C36.1211 19.8208 36.6226 21.9753 36.6034 24.5242L36.5881 26.5553Z" fill="#999999" fill-opacity="0.29"/>
<path d="M78.8201 21.1383L78.3194 87.568L100.542 87.7355L101.043 21.3058L117.77 21.4319L117.912 2.55441L62.4744 2.13656L62.3321 21.0141L78.8201 21.1383Z" fill="#999999" fill-opacity="0.29"/>
<path d="M144.187 2.75245L121.964 2.58495L121.543 58.5006C121.498 64.4745 122.097 69.4575 123.342 73.4497C124.586 77.4419 126.394 80.6418 128.766 83.0494C131.217 85.4575 134.231 87.1132 137.809 88.0164C141.466 88.9202 145.605 89.3895 150.225 89.4243C154.924 89.4597 159.07 89.0529 162.66 88.2037C166.251 87.3545 169.251 85.7442 171.658 83.3727C174.145 81.0017 176.041 77.8297 177.346 73.8567C178.65 69.8838 179.325 64.9103 179.37 58.9364L179.791 3.02081L157.569 2.85331L157.105 64.3844C157.074 68.5263 156.455 71.3096 155.25 72.7343C154.045 74.0794 152.407 74.7441 150.336 74.7285C148.265 74.7129 146.637 74.0236 145.452 72.6605C144.268 71.2177 143.692 68.4254 143.723 64.2835L144.187 2.75245Z" fill="#999999" fill-opacity="0.29"/>
<path d="M189.309 3.09255L188.666 88.3997L220.925 88.6429C227.377 88.6915 232.404 87.5744 236.006 85.2915C239.608 82.9289 242.3 79.8028 244.082 75.9131C245.944 71.9443 247.093 67.4125 247.53 62.3178C247.967 57.1434 248.207 51.7684 248.249 46.1928C248.291 40.6172 248.132 35.279 247.772 30.1783C247.413 24.9979 246.332 20.4493 244.53 16.5326C242.807 12.5368 240.163 9.37042 236.596 7.0335C233.029 4.61692 228.02 3.38432 221.568 3.33569L189.309 3.09255ZM211.01 72.5572L211.412 19.2701L215.832 19.3034C217.983 19.3196 219.693 19.6511 220.963 20.2979C222.233 20.8651 223.179 22.1069 223.802 24.0234C224.505 25.9404 224.922 28.6519 225.055 32.1578C225.268 35.6642 225.352 40.285 225.309 46.0199C225.266 51.7548 225.112 56.3737 224.846 59.8766C224.661 63.3801 224.202 66.085 223.471 67.9912C222.819 69.898 221.854 71.1653 220.575 71.7929C219.296 72.3408 217.581 72.6067 215.431 72.5905L211.01 72.5572Z" fill="#999999" fill-opacity="0.29"/>
<path d="M257.08 3.60335L256.437 88.9105L278.659 89.078L279.302 3.77085L257.08 3.60335Z" fill="#999999" fill-opacity="0.29"/>
<path d="M309.061 46.6512C309.105 40.9162 309.22 36.1775 309.407 32.4351C309.596 28.613 309.937 25.5886 310.432 23.362C311.006 21.1359 311.774 19.5884 312.737 18.7195C313.779 17.8511 315.136 17.4232 316.809 17.4358C318.482 17.4484 319.793 17.8964 320.742 18.7798C321.771 19.6638 322.516 21.2227 322.977 23.4565C323.518 25.691 323.853 28.7205 323.984 32.545C324.115 36.2898 324.159 41.0297 324.116 46.7646C324.072 52.4996 323.957 57.2781 323.768 61.1002C323.581 64.8426 323.2 67.8268 322.626 70.0529C322.131 72.2795 321.363 73.827 320.32 74.6954C319.358 75.5644 318.04 75.9926 316.368 75.98C314.695 75.9673 313.344 75.5191 312.315 74.6351C311.366 73.7517 310.621 72.1928 310.08 69.9583C309.619 67.7245 309.323 64.7351 309.192 60.9903C309.062 57.1658 309.018 52.3861 309.061 46.6512ZM286.122 46.4783C286.062 54.4434 286.528 61.2576 287.521 66.9207C288.514 72.5041 290.192 77.097 292.555 80.6993C294.918 84.222 298.045 86.7548 301.937 88.2976C305.828 89.8404 310.602 90.6331 316.257 90.6757C321.912 90.7184 326.697 89.9977 330.611 88.5137C334.526 87.0297 337.691 84.5444 340.107 81.0577C342.524 77.4914 344.271 72.9243 345.348 67.3565C346.426 61.709 346.995 54.9027 347.055 46.9375C347.115 38.9723 346.649 32.198 345.655 26.6146C344.662 20.9515 342.984 16.3586 340.621 12.8359C338.259 9.23357 335.132 6.62117 331.241 4.99871C327.351 3.29661 322.578 2.42424 316.923 2.38161C311.267 2.33899 306.482 3.13931 302.566 4.78259C298.651 6.34621 295.486 8.91118 293.069 12.4775C290.653 15.9642 288.906 20.5312 287.828 26.1787C286.75 31.7466 286.182 38.5131 286.122 46.4783Z" fill="#999999" fill-opacity="0.29"/>
<path d="M2.3957 104.387L2.00575 156.124L34.2648 156.368L34.3478 145.354L15.9781 145.215L16.0556 134.926L32.6332 135.051L32.7129 124.471L16.1354 124.346L16.202 115.506L33.8996 115.64L33.9827 104.626L2.3957 104.387Z" fill="#999999" fill-opacity="0.29"/>
<path d="M39.7325 104.669L39.3426 156.406L52.3358 156.504L52.5766 124.549L52.726 124.55L61.7447 156.575L76.9781 156.69L77.368 104.953L64.3748 104.855L64.1345 136.737L63.9852 136.736L55.2646 104.786L39.7325 104.669Z" fill="#999999" fill-opacity="0.29"/>
<path d="M101.668 128.759L101.599 137.889L106.527 137.926C106.511 140.149 106.372 141.983 106.113 143.431C105.903 144.83 105.596 145.939 105.191 146.757C104.787 147.527 104.285 148.055 103.686 148.34C103.136 148.626 102.488 148.766 101.741 148.76C100.696 148.752 99.8513 148.48 99.2082 147.944C98.6148 147.408 98.1489 146.463 97.8107 145.107C97.5222 143.752 97.3367 141.939 97.2542 139.668C97.1721 137.349 97.1442 134.45 97.1704 130.972C97.1966 127.494 97.2681 124.62 97.3848 122.35C97.5018 120.032 97.7148 118.198 98.0237 116.848C98.3823 115.498 98.8873 114.559 99.5384 114.033C100.239 113.507 101.162 113.248 102.307 113.257C103.95 113.269 105.015 114.026 105.501 115.527C105.99 116.787 106.224 118.793 106.203 121.547L119.644 121.648C119.668 118.508 119.265 115.848 118.435 113.668C117.605 111.44 116.449 109.619 114.966 108.207C113.483 106.795 111.699 105.767 109.612 105.123C107.576 104.48 105.338 104.149 102.899 104.131C98.8167 104.1 95.4768 104.678 92.879 105.867C90.2816 107.006 88.2275 108.706 86.717 110.965C85.2562 113.225 84.2394 116.019 83.6667 119.348C83.1437 122.678 82.8658 126.516 82.8331 130.864C82.8007 135.163 82.8964 138.98 83.1202 142.315C83.3937 145.651 84.0447 148.458 85.073 150.736C86.1013 153.014 87.6316 154.741 89.664 155.916C91.6967 157.042 94.4803 157.619 98.0149 157.645C99.2096 157.654 100.38 157.591 101.526 157.454C102.722 157.318 103.819 157.085 104.817 156.754C105.866 156.376 106.791 155.827 107.593 155.109C108.445 154.39 109.099 153.478 109.555 152.37L109.704 152.371L109.969 156.938L119.378 157.009L119.589 128.894L101.668 128.759Z" fill="#999999" fill-opacity="0.29"/>
<path d="M124.895 105.311L124.505 157.048L138.394 157.152L138.784 105.415L124.895 105.311Z" fill="#999999" fill-opacity="0.29"/>
<path d="M144.815 105.461L144.425 157.198L157.418 157.296L157.659 125.341L157.809 125.342L166.827 157.367L182.061 157.482L182.451 105.745L169.458 105.647L169.217 137.529L169.068 137.528L160.347 105.578L144.815 105.461Z" fill="#999999" fill-opacity="0.29"/>
<path d="M189.007 105.794L188.617 157.531L220.876 157.774L220.959 146.76L202.589 146.622L202.667 136.332L219.244 136.457L219.324 125.878L202.747 125.753L202.813 116.913L220.511 117.046L220.594 106.032L189.007 105.794Z" fill="#999999" fill-opacity="0.29"/>
<path d="M226.344 106.075L225.954 157.812L258.213 158.056L258.296 147.042L239.926 146.903L240.004 136.614L256.581 136.739L256.661 126.159L240.083 126.034L240.15 117.194L257.848 117.328L257.931 106.314L226.344 106.075Z" fill="#999999" fill-opacity="0.29"/>
<path d="M277.405 128.345L277.497 116.171L280.185 116.192C282.276 116.207 283.766 116.677 284.655 117.602C285.594 118.527 286.055 120.076 286.039 122.25C286.025 124.086 285.541 125.58 284.586 126.732C283.632 127.836 282.159 128.381 280.168 128.366L277.405 128.345ZM263.681 106.357L263.291 158.094L277.18 158.199L277.336 137.475L280.995 137.502C281.841 137.509 282.537 137.635 283.083 137.88C283.679 138.078 284.149 138.468 284.493 139.05C284.887 139.585 285.156 140.336 285.298 141.303C285.44 142.27 285.505 143.478 285.494 144.928L285.468 148.406C285.464 148.937 285.459 149.638 285.452 150.507C285.496 151.329 285.539 152.199 285.582 153.117C285.675 154.035 285.792 154.954 285.935 155.873C286.127 156.793 286.395 157.592 286.738 158.271L301.523 158.382L301.529 157.657C301.083 157.412 300.761 157.169 300.564 156.925C300.367 156.634 300.17 156.343 299.973 156.051C299.826 155.76 299.704 155.349 299.609 154.817C299.513 154.285 299.443 153.704 299.398 153.076C299.353 152.399 299.333 151.699 299.339 150.974C299.344 150.25 299.35 149.549 299.355 148.873L299.388 144.453C299.414 140.975 298.813 138.241 297.583 136.251C296.353 134.261 294.072 133.108 290.739 132.793L290.74 132.648C293.929 132.189 296.254 130.902 297.714 128.788C299.174 126.673 299.917 123.877 299.943 120.399C299.958 118.418 299.698 116.58 299.163 114.885C298.678 113.191 297.842 111.735 296.657 110.519C295.521 109.254 294.01 108.276 292.124 107.586C290.287 106.896 288.049 106.541 285.411 106.521L263.681 106.357Z" fill="#999999" fill-opacity="0.29"/>
<path d="M306.037 106.676L305.647 158.413L319.536 158.518L319.926 106.781L306.037 106.676Z" fill="#999999" fill-opacity="0.29"/>
<path d="M325.957 106.826L325.567 158.563L338.56 158.661L338.801 126.706L338.951 126.707L347.969 158.732L363.203 158.847L363.593 107.11L350.599 107.012L350.359 138.895L350.21 138.894L341.489 106.943L325.957 106.826Z" fill="#999999" fill-opacity="0.29"/>
<path d="M387.892 130.917L387.824 140.047L392.752 140.084C392.735 142.306 392.597 144.141 392.337 145.588C392.127 146.987 391.82 148.096 391.416 148.914C391.012 149.684 390.51 150.212 389.91 150.497C389.361 150.783 388.712 150.923 387.966 150.917C386.92 150.91 386.076 150.638 385.433 150.101C384.839 149.565 384.374 148.62 384.035 147.265C383.747 145.91 383.561 144.097 383.479 141.826C383.397 139.506 383.369 136.607 383.395 133.129C383.421 129.651 383.493 126.777 383.609 124.507C383.726 122.189 383.939 120.355 384.248 119.005C384.607 117.655 385.112 116.717 385.763 116.19C386.464 115.664 387.387 115.405 388.532 115.414C390.175 115.426 391.239 116.183 391.726 117.684C392.214 118.944 392.448 120.951 392.427 123.704L405.869 123.806C405.892 120.666 405.489 118.006 404.659 115.825C403.83 113.597 402.674 111.777 401.191 110.364C399.708 108.952 397.923 107.924 395.837 107.28C393.801 106.637 391.563 106.306 389.124 106.288C385.041 106.257 381.701 106.836 379.104 108.024C376.506 109.164 374.452 110.863 372.942 113.123C371.481 115.382 370.464 118.176 369.891 121.505C369.368 124.835 369.09 128.673 369.058 133.021C369.025 137.32 369.121 141.138 369.345 144.473C369.618 147.808 370.269 150.615 371.298 152.893C372.326 155.172 373.856 156.898 375.889 158.073C377.921 159.199 380.705 159.776 384.24 159.803C385.434 159.812 386.605 159.748 387.751 159.612C388.947 159.476 390.044 159.242 391.042 158.912C392.09 158.533 393.015 157.985 393.817 157.266C394.669 156.548 395.323 155.635 395.78 154.527L395.929 154.528L396.193 159.096L405.602 159.166L405.814 131.052L387.892 130.917Z" fill="#999999" fill-opacity="0.29"/>
</svg>
