<svg width="62" height="62" viewBox="0 0 62 62" fill="none" xmlns="http://www.w3.org/2000/svg">
<g clip-path="url(#clip0)">
<path d="M45.9502 45.015C45.4736 45.2327 44.9837 45.4367 44.4819 45.6392C44.2815 45.7201 44.0784 45.801 43.8732 45.8828C42.5639 46.4043 41.1713 46.9589 39.878 47.7497C39.8478 47.7382 39.8171 47.7233 39.7889 47.7064C39.7833 47.7029 39.7779 47.6996 39.7728 47.6962C39.8474 47.3401 39.8777 47.0111 39.8672 46.7028L39.8673 46.7027L39.8669 46.6946C39.8393 46.0407 39.6152 45.4994 39.2293 45.0765C38.8679 44.6805 38.4189 44.4491 38.0473 44.293C37.8417 44.2066 37.56 44.1072 37.3284 44.0255C37.2772 44.0074 37.2285 43.9902 37.1836 43.9742C37.253 43.935 37.3247 43.8973 37.408 43.8534C37.4804 43.8152 37.5616 43.7724 37.6576 43.7201C37.892 43.5924 38.1916 43.4178 38.4612 43.1709L38.4614 43.1707C38.8577 42.8074 39.1541 42.3178 39.2334 41.6604L39.3465 40.7218L38.4158 40.5562C37.8664 40.4584 37.3179 40.4057 36.8175 40.3577L36.7708 40.3532C36.2436 40.3026 35.7692 40.2555 35.3124 40.17C34.4281 40.0044 33.6697 39.7053 32.9872 39.0039L32.9865 39.0031C32.5866 38.5931 32.11 38.3158 31.5612 38.2484C31.0223 38.1823 30.5425 38.3349 30.1581 38.5403C29.4534 38.9169 28.836 39.6074 28.4025 40.0923L28.3805 40.1169L28.3792 40.1183C28.3342 40.1688 28.2895 40.2192 28.2452 40.2694L27.3426 38.8952C26.9901 38.3586 26.6593 37.8784 26.3499 37.4293C25.7205 36.5158 25.1797 35.731 24.7262 34.8619L24.7258 34.8612C23.751 32.997 22.1237 31.5077 20.2973 30.7737C18.4566 30.034 16.3423 30.0444 14.5626 31.3329C12.6749 32.6963 10.7881 33.0028 8.81751 32.915C7.81625 32.8703 6.80462 32.7243 5.74824 32.56C5.63083 32.5417 5.51271 32.5232 5.39396 32.5045C4.46115 32.3582 3.48987 32.2059 2.52191 32.1243C1.95697 32.0764 1.61906 31.8812 1.4103 31.648C1.19295 31.4052 1.02764 31.0217 0.9997 30.4524C0.942437 29.2859 1.48416 27.57 2.8293 25.6929L2.83053 25.6912C3.48582 24.7726 4.1818 23.9735 4.92484 23.5988L4.92485 23.5988L4.92853 23.5969C5.93529 23.0839 6.7236 22.3735 6.94571 21.3737C7.16555 20.3841 6.75393 19.4489 6.18065 18.6663C5.80835 18.1542 5.69196 17.8373 5.66505 17.67C5.64621 17.5528 5.66808 17.5207 5.69911 17.4801C5.76294 17.3968 5.9118 17.2705 6.22813 17.1092C6.53802 16.9512 6.91076 16.8065 7.36174 16.6322C9.64717 15.7601 12.0508 15.8892 14.4061 16.4738C17.6871 17.3005 20.9678 17.713 24.2622 17.9975L24.2643 17.9977C24.3573 18.0055 24.4511 18.0138 24.5457 18.0221C25.4127 18.0983 26.3481 18.1806 27.2665 17.9921C28.3563 17.7685 29.3555 17.1912 30.3831 16.0604C30.8593 15.5365 31.7676 15.2239 33.1498 15C33.6315 14.922 34.1237 14.8605 34.6371 14.7964C34.8353 14.7716 35.0366 14.7465 35.2417 14.7199C35.9591 14.6266 36.7066 14.5168 37.4083 14.3444C38.1476 14.1636 38.5739 14.2217 38.8315 14.321C39.0861 14.4192 39.3042 14.6065 39.538 14.9391C39.7288 15.2105 39.8839 15.5053 40.0731 15.8651C40.1371 15.9867 40.205 16.1158 40.2795 16.2539C40.5492 16.7539 40.8952 17.346 41.4055 17.8336C41.8431 18.254 42.2644 18.7367 42.7339 19.2745C42.8125 19.3646 42.8925 19.4562 42.9741 19.5494C43.5281 20.1816 44.1435 20.8652 44.8512 21.4789C46.2992 22.7348 48.1456 23.7061 50.7636 23.5776L50.765 23.5775C52.223 23.5039 53.762 23.9467 55.4493 24.604C56.001 24.8189 56.5824 25.0635 57.1788 25.3143C58.3198 25.7942 59.5157 26.2973 60.6637 26.6601L60.965 25.7066L60.6626 26.6598C60.8178 26.709 60.8904 26.7702 60.924 26.807C60.9594 26.8457 60.9801 26.8886 60.9907 26.9358C61.0008 26.9811 60.9999 27.0243 60.9943 27.0557L45.9502 45.015ZM45.9502 45.015C45.7103 44.9768 45.4732 44.9181 45.2431 44.8333C44.3057 44.4878 43.6098 43.7561 43.2782 42.6097C43.0927 41.9683 43.1383 41.364 43.3735 40.8342C43.5995 40.3251 43.9691 39.9539 44.3244 39.6919C45.0145 39.183 45.831 38.9522 46.1948 38.8831L45.9502 45.015ZM25.2725 43.2194C24.4904 43.7276 23.5892 44.0332 22.3936 43.8833C22.4956 43.652 22.5889 43.4255 22.677 43.2118L22.6953 43.1673C22.9556 42.5358 23.1746 42.014 23.4588 41.5759C23.7294 41.1586 24.0339 40.8601 24.44 40.6692C24.8531 40.4749 25.4629 40.3493 26.4119 40.4397L27.9658 40.5877C27.9101 40.6514 27.8549 40.7147 27.8001 40.7776C26.9474 41.7554 26.192 42.6218 25.2725 43.2194Z" stroke="#363636" stroke-width="2"/>
</g>
<g clip-path="url(#clip1)">
<mask id="path-4-inside-1" fill="white">
<path d="M33.4623 32.8267C33.2663 32.8267 33.0779 32.8757 32.9108 32.9675C32.0302 31.8387 31.5469 30.4365 31.5469 29C31.5469 25.4417 34.4417 22.5469 38 22.5469C38.4326 22.5469 38.865 22.5899 39.2852 22.6748C39.433 22.7047 39.5774 22.609 39.6073 22.461C39.6372 22.313 39.5415 22.1688 39.3935 22.1387C38.9377 22.0467 38.4689 22 38 22C36.1303 22 34.3724 22.7281 33.0502 24.0502C31.7281 25.3724 31 27.1303 31 29C31 30.5728 31.5341 32.1077 32.5064 33.3382C32.3812 33.5252 32.3139 33.745 32.3139 33.9752C32.3139 34.2819 32.4334 34.5703 32.6503 34.7872C32.8672 35.0041 33.1556 35.1236 33.4623 35.1236C33.7691 35.1236 34.0575 35.0041 34.2744 34.7872C34.4913 34.5703 34.6108 34.2818 34.6108 33.9751C34.6108 33.6684 34.4913 33.3799 34.2744 33.1631C34.0575 32.9462 33.7691 32.8267 33.4623 32.8267ZM33.8876 34.4005C33.7741 34.5141 33.623 34.5767 33.4623 34.5767C33.3017 34.5767 33.1506 34.5141 33.037 34.4005C32.9234 34.2868 32.8608 34.1358 32.8608 33.9752C32.8608 33.8144 32.9234 33.6634 33.037 33.5497C33.1505 33.4361 33.3017 33.3736 33.4623 33.3736C33.623 33.3736 33.774 33.4362 33.8876 33.5497C34.0013 33.6634 34.0639 33.8144 34.0639 33.9752C34.0639 34.1358 34.0013 34.2868 33.8876 34.4005Z"/>
</mask>
<path d="M33.4623 32.8267C33.2663 32.8267 33.0779 32.8757 32.9108 32.9675C32.0302 31.8387 31.5469 30.4365 31.5469 29C31.5469 25.4417 34.4417 22.5469 38 22.5469C38.4326 22.5469 38.865 22.5899 39.2852 22.6748C39.433 22.7047 39.5774 22.609 39.6073 22.461C39.6372 22.313 39.5415 22.1688 39.3935 22.1387C38.9377 22.0467 38.4689 22 38 22C36.1303 22 34.3724 22.7281 33.0502 24.0502C31.7281 25.3724 31 27.1303 31 29C31 30.5728 31.5341 32.1077 32.5064 33.3382C32.3812 33.5252 32.3139 33.745 32.3139 33.9752C32.3139 34.2819 32.4334 34.5703 32.6503 34.7872C32.8672 35.0041 33.1556 35.1236 33.4623 35.1236C33.7691 35.1236 34.0575 35.0041 34.2744 34.7872C34.4913 34.5703 34.6108 34.2818 34.6108 33.9751C34.6108 33.6684 34.4913 33.3799 34.2744 33.1631C34.0575 32.9462 33.7691 32.8267 33.4623 32.8267ZM33.8876 34.4005C33.7741 34.5141 33.623 34.5767 33.4623 34.5767C33.3017 34.5767 33.1506 34.5141 33.037 34.4005C32.9234 34.2868 32.8608 34.1358 32.8608 33.9752C32.8608 33.8144 32.9234 33.6634 33.037 33.5497C33.1505 33.4361 33.3017 33.3736 33.4623 33.3736C33.623 33.3736 33.774 33.4362 33.8876 33.5497C34.0013 33.6634 34.0639 33.8144 34.0639 33.9752C34.0639 34.1358 34.0013 34.2868 33.8876 34.4005Z" fill="#363636"/>
<path d="M32.9108 32.9675L30.5453 34.8127L32.1167 36.827L34.3555 35.5967L32.9108 32.9675ZM39.2852 22.6748L39.88 19.7344L39.8794 19.7343L39.2852 22.6748ZM39.3935 22.1387L39.9896 19.1986L39.9875 19.1982L39.3935 22.1387ZM32.5064 33.3382L34.9994 35.0068L36.2143 33.1918L34.8602 31.4782L32.5064 33.3382ZM32.6503 34.7872L34.7722 32.6664L34.7711 32.6653L32.6503 34.7872ZM34.2744 34.7872L32.1536 32.6653L32.1531 32.6658L34.2744 34.7872ZM34.2744 33.1631L32.1531 35.2844L32.1536 35.2849L34.2744 33.1631ZM33.037 33.5497L35.1583 35.6711L35.1593 35.6701L33.037 33.5497ZM33.8876 33.5497L36.009 31.4284L36.008 31.4274L33.8876 33.5497ZM33.4623 29.8267C32.7624 29.8267 32.0769 30.0026 31.466 30.3383L34.3555 35.5967C34.079 35.7487 33.7703 35.8267 33.4623 35.8267V29.8267ZM35.2762 31.1223C34.8066 30.5204 34.5469 29.7676 34.5469 29H28.5469C28.5469 31.1055 29.2538 33.1571 30.5453 34.8127L35.2762 31.1223ZM34.5469 29C34.5469 27.0985 36.0985 25.5469 38 25.5469V19.5469C32.7848 19.5469 28.5469 23.7848 28.5469 29H34.5469ZM38 25.5469C38.2349 25.5469 38.4681 25.5704 38.6909 25.6154L39.8794 19.7343C39.2618 19.6095 38.6303 19.5469 38 19.5469V25.5469ZM38.6903 25.6153C40.4616 25.9736 42.1897 24.8282 42.5479 23.0551L36.6667 21.8669C36.9651 20.3898 38.4044 19.4359 39.88 19.7344L38.6903 25.6153ZM42.5479 23.0551C42.9059 21.2828 41.7597 19.5574 39.9896 19.1986L38.7974 25.0789C37.3233 24.7801 36.3685 23.3431 36.6667 21.8669L42.5479 23.0551ZM39.9875 19.1982C39.3345 19.0662 38.6667 19 38 19V25C38.2711 25 38.5409 25.0271 38.7994 25.0793L39.9875 19.1982ZM38 19C35.3346 19 32.8137 20.0442 30.9289 21.9289L35.1716 26.1716C35.9311 25.4121 36.9259 25 38 25V19ZM30.9289 21.9289C29.0442 23.8137 28 26.3346 28 29H34C34 27.9259 34.4121 26.9311 35.1716 26.1716L30.9289 21.9289ZM28 29C28 31.2479 28.7617 33.4381 30.1525 35.1981L34.8602 31.4782C34.3064 30.7773 34 29.8977 34 29H28ZM30.0133 31.6695C29.5563 32.3522 29.3139 33.1532 29.3139 33.9752H35.3139C35.3139 34.3368 35.2061 34.6982 34.9994 35.0068L30.0133 31.6695ZM29.3139 33.9752C29.3139 35.0779 29.7498 36.1296 30.5295 36.909L34.7711 32.6653C35.1171 33.0111 35.3139 33.4859 35.3139 33.9752H29.3139ZM30.5285 36.908C31.3079 37.6877 32.3596 38.1236 33.4623 38.1236V32.1236C33.9516 32.1236 34.4264 32.3204 34.7722 32.6664L30.5285 36.908ZM33.4623 38.1236C34.5652 38.1236 35.6165 37.6877 36.3957 36.9085L32.1531 32.6658C32.4984 32.3205 32.973 32.1236 33.4623 32.1236V38.1236ZM36.3952 36.909C37.1757 36.1289 37.6108 35.0768 37.6108 33.9751H31.6108C31.6108 33.4868 31.807 33.0118 32.1536 32.6653L36.3952 36.909ZM37.6108 33.9751C37.6108 32.8733 37.1756 31.8213 36.3952 31.0412L32.1536 35.2849C31.8071 34.9386 31.6108 34.4636 31.6108 33.9751H37.6108ZM36.3957 31.0418C35.616 30.2621 34.5645 29.8267 33.4623 29.8267V35.8267C32.9737 35.8267 32.4989 35.6302 32.1531 35.2844L36.3957 31.0418ZM31.7653 32.2802C32.215 31.8301 32.8275 31.5767 33.4623 31.5767V37.5767C34.4184 37.5767 35.3333 37.1982 36.01 36.5208L31.7653 32.2802ZM33.4623 31.5767C34.0979 31.5767 34.7098 31.8307 35.1583 32.2792L30.9157 36.5218C31.5915 37.1976 32.5054 37.5767 33.4623 37.5767V31.5767ZM35.1583 32.2792C35.6068 32.7277 35.8608 33.3396 35.8608 33.9752H29.8608C29.8608 34.9321 30.2399 35.846 30.9157 36.5218L35.1583 32.2792ZM35.8608 33.9752C35.8608 34.6104 35.607 35.2223 35.1583 35.6711L30.9157 31.4284C30.2397 32.1044 29.8608 33.0184 29.8608 33.9752H35.8608ZM35.1593 35.6701C34.7087 36.1211 34.0958 36.3736 33.4623 36.3736V30.3736C32.5076 30.3736 31.5924 30.7511 30.9147 31.4294L35.1593 35.6701ZM33.4623 36.3736C32.8269 36.3736 32.2155 36.1198 31.7673 35.6721L36.008 31.4274C35.3325 30.7526 34.4191 30.3736 33.4623 30.3736V36.3736ZM31.7663 35.6711C31.3176 35.2223 31.0639 34.6104 31.0639 33.9752H37.0639C37.0639 33.0184 36.685 32.1044 36.009 31.4284L31.7663 35.6711ZM31.0639 33.9752C31.0639 33.3396 31.3178 32.7277 31.7663 32.2792L36.009 36.5218C36.6848 35.846 37.0639 34.9321 37.0639 33.9752H31.0639Z" fill="black" mask="url(#path-4-inside-1)"/>
<mask id="path-6-inside-2" fill="white">
<path d="M43.4934 24.6616C43.7907 24.2157 43.7429 23.606 43.3498 23.2128C43.1328 22.996 42.8444 22.8765 42.5377 22.8765C42.2309 22.8765 41.9425 22.996 41.7256 23.2128C41.5087 23.4297 41.3892 23.7181 41.3892 24.0249C41.3892 24.3317 41.5087 24.6201 41.7256 24.837C41.9425 25.0539 42.2309 25.1733 42.5377 25.1733C42.7337 25.1733 42.9221 25.1244 43.0893 25.0326C43.9698 26.1615 44.4531 27.5636 44.4531 29.0001C44.4531 32.5584 41.5583 35.4532 38 35.4532C37.5717 35.4532 37.1434 35.411 36.7271 35.3277C36.5791 35.2981 36.435 35.3941 36.4053 35.5422C36.3757 35.6903 36.4718 35.8343 36.6198 35.864C37.0713 35.9543 37.5357 36.0001 38 36.0001C39.8697 36.0001 41.6277 35.2719 42.9498 33.9498C44.2719 32.6277 45 30.8698 45 29.0001C45 27.4272 44.4658 25.8922 43.4934 24.6616ZM42.1124 24.4503C41.9987 24.3367 41.9361 24.1857 41.9361 24.0249C41.9361 23.8643 41.9987 23.7132 42.1124 23.5996C42.2259 23.4859 42.377 23.4233 42.5377 23.4233C42.6983 23.4233 42.8495 23.4859 42.9631 23.5996C43.1976 23.8341 43.1976 24.2158 42.9631 24.4503C42.8495 24.5639 42.6983 24.6265 42.5377 24.6265C42.3769 24.6265 42.2259 24.5639 42.1124 24.4503Z"/>
</mask>
<path d="M43.4934 24.6616C43.7907 24.2157 43.7429 23.606 43.3498 23.2128C43.1328 22.996 42.8444 22.8765 42.5377 22.8765C42.2309 22.8765 41.9425 22.996 41.7256 23.2128C41.5087 23.4297 41.3892 23.7181 41.3892 24.0249C41.3892 24.3317 41.5087 24.6201 41.7256 24.837C41.9425 25.0539 42.2309 25.1733 42.5377 25.1733C42.7337 25.1733 42.9221 25.1244 43.0893 25.0326C43.9698 26.1615 44.4531 27.5636 44.4531 29.0001C44.4531 32.5584 41.5583 35.4532 38 35.4532C37.5717 35.4532 37.1434 35.411 36.7271 35.3277C36.5791 35.2981 36.435 35.3941 36.4053 35.5422C36.3757 35.6903 36.4718 35.8343 36.6198 35.864C37.0713 35.9543 37.5357 36.0001 38 36.0001C39.8697 36.0001 41.6277 35.2719 42.9498 33.9498C44.2719 32.6277 45 30.8698 45 29.0001C45 27.4272 44.4658 25.8922 43.4934 24.6616ZM42.1124 24.4503C41.9987 24.3367 41.9361 24.1857 41.9361 24.0249C41.9361 23.8643 41.9987 23.7132 42.1124 23.5996C42.2259 23.4859 42.377 23.4233 42.5377 23.4233C42.6983 23.4233 42.8495 23.4859 42.9631 23.5996C43.1976 23.8341 43.1976 24.2158 42.9631 24.4503C42.8495 24.5639 42.6983 24.6265 42.5377 24.6265C42.3769 24.6265 42.2259 24.5639 42.1124 24.4503Z" fill="#363636"/>
<path d="M43.3498 23.2128L45.4711 21.0915L45.4706 21.091L43.3498 23.2128ZM41.7256 23.2128L39.6048 21.091L39.6043 21.0915L41.7256 23.2128ZM43.0893 25.0326L45.4547 23.1874L43.8835 21.173L41.6445 22.4034L43.0893 25.0326ZM36.7271 35.3277L37.3159 32.386L37.3151 32.3859L36.7271 35.3277ZM36.4053 35.5422L33.4639 34.9522L33.4634 34.9546L36.4053 35.5422ZM36.6198 35.864L36.0298 38.8054L36.0317 38.8058L36.6198 35.864ZM42.1124 23.5996L44.2337 25.7209L44.2347 25.7199L42.1124 23.5996ZM42.9631 23.5996L45.0849 21.4787L45.0844 21.4783L42.9631 23.5996ZM42.9631 24.4503L45.0834 26.5727L45.0849 26.5712L42.9631 24.4503ZM45.9897 26.3256C47.0628 24.7157 46.8973 22.5177 45.4711 21.0915L41.2285 25.3341C40.5886 24.6943 40.5186 23.7156 40.9972 22.9976L45.9897 26.3256ZM45.4706 21.091C44.6915 20.3123 43.6405 19.8765 42.5377 19.8765V25.8765C42.0484 25.8765 41.5741 25.6797 41.229 25.3347L45.4706 21.091ZM42.5377 19.8765C41.4349 19.8765 40.3838 20.3123 39.6048 21.091L43.8464 25.3347C43.5012 25.6797 43.027 25.8765 42.5377 25.8765V19.8765ZM39.6043 21.0915C38.8246 21.8712 38.3892 22.9227 38.3892 24.0249H44.3892C44.3892 24.5136 44.1928 24.9883 43.8469 25.3341L39.6043 21.0915ZM38.3892 24.0249C38.3892 25.1271 38.8246 26.1786 39.6043 26.9583L43.8469 22.7157C44.1928 23.0615 44.3892 23.5362 44.3892 24.0249H38.3892ZM39.6043 26.9583C40.384 27.738 41.4355 28.1733 42.5377 28.1733V22.1733C43.0263 22.1733 43.5011 22.3698 43.8469 22.7157L39.6043 26.9583ZM42.5377 28.1733C43.2376 28.1733 43.9231 27.9974 44.534 27.6617L41.6445 22.4034C41.9211 22.2514 42.2298 22.1733 42.5377 22.1733V28.1733ZM40.7238 26.8777C41.1934 27.4798 41.4531 28.2326 41.4531 29.0001H47.4531C47.4531 26.8945 46.7462 24.8431 45.4547 23.1874L40.7238 26.8777ZM41.4531 29.0001C41.4531 30.9015 39.9015 32.4532 38 32.4532V38.4532C43.2152 38.4532 47.4531 34.2153 47.4531 29.0001H41.4531ZM38 32.4532C37.7673 32.4532 37.5363 32.4301 37.3159 32.386L36.1384 38.2694C36.7505 38.3919 37.3761 38.4532 38 38.4532V32.4532ZM37.3151 32.3859C35.5428 32.0317 33.8192 33.1807 33.4639 34.9522L39.3467 36.1322C39.0508 37.6075 37.6154 38.5645 36.1392 38.2695L37.3151 32.3859ZM33.4634 34.9546C33.1094 36.7271 34.2587 38.4502 36.0298 38.8054L37.2098 32.9226C38.6848 33.2184 39.642 34.6536 39.3472 36.1297L33.4634 34.9546ZM36.0317 38.8058C36.6783 38.935 37.3397 39.0001 38 39.0001V33.0001C37.7317 33.0001 37.4643 32.9735 37.2079 32.9222L36.0317 38.8058ZM38 39.0001C40.6654 39.0001 43.1864 37.9559 45.0711 36.0711L40.8284 31.8285C40.0689 32.588 39.0741 33.0001 38 33.0001V39.0001ZM45.0711 36.0711C46.9558 34.1864 48 31.6655 48 29.0001H42C42 30.0742 41.5879 31.069 40.8284 31.8285L45.0711 36.0711ZM48 29.0001C48 26.752 47.2381 24.5617 45.8472 22.8016L41.1396 26.5216C41.6936 27.2226 42 28.1023 42 29.0001H48ZM44.2337 22.329C44.6824 22.7777 44.9361 23.3897 44.9361 24.0249H38.9361C38.9361 24.9816 39.315 25.8956 39.991 26.5717L44.2337 22.329ZM44.9361 24.0249C44.9361 24.6605 44.6822 25.2724 44.2337 25.7209L39.991 21.4783C39.3152 22.1541 38.9361 23.068 38.9361 24.0249H44.9361ZM44.2347 25.7199C43.785 26.17 43.1725 26.4233 42.5377 26.4233V20.4233C41.5816 20.4233 40.6668 20.8019 39.99 21.4793L44.2347 25.7199ZM42.5377 26.4233C41.9026 26.4233 41.2907 26.1698 40.8418 25.7209L45.0844 21.4783C44.4082 20.802 43.494 20.4233 42.5377 20.4233V26.4233ZM40.8413 25.7204C39.9048 24.7835 39.9048 23.2664 40.8413 22.3295L45.0849 26.5712C46.4903 25.1651 46.4903 22.8848 45.0849 21.4787L40.8413 25.7204ZM40.8428 22.328C41.2914 21.8798 41.9028 21.6265 42.5377 21.6265V27.6265C43.4939 27.6265 44.4075 27.2479 45.0834 26.5726L40.8428 22.328ZM42.5377 21.6265C43.1725 21.6265 43.7846 21.8799 44.2337 22.329L39.991 26.5717C40.6672 27.2478 41.5814 27.6265 42.5377 27.6265V21.6265Z" fill="black" mask="url(#path-6-inside-2)"/>
<mask id="path-8-inside-3" fill="white">
<path d="M36.8716 33.7031C36.8716 33.8542 36.9941 33.9766 37.145 33.9766H38.8548C39.0058 33.9766 39.1282 33.8542 39.1282 33.7031V33.173C39.4877 33.0762 39.8314 32.9338 40.1544 32.7477L40.5287 33.122C40.58 33.1732 40.6495 33.2021 40.7221 33.2021C40.7946 33.2021 40.8642 33.1732 40.9155 33.1219L42.1239 31.9125C42.2306 31.8057 42.2306 31.6326 42.1239 31.5259L41.7501 31.152C41.9362 30.829 42.0786 30.4853 42.1754 30.1258H42.7035C42.8545 30.1258 42.9769 30.0034 42.9769 29.8524V28.1426C42.9769 27.9916 42.8545 27.8692 42.7035 27.8692H42.1753C42.0785 27.5098 41.9362 27.166 41.7501 26.843L42.1219 26.4712C42.1732 26.42 42.202 26.3503 42.202 26.2778C42.2019 26.2053 42.1731 26.1356 42.1218 26.0844L40.9124 24.8759C40.8057 24.7692 40.6325 24.7692 40.5257 24.876L40.1544 25.2474C39.8314 25.0613 39.4877 24.9188 39.1282 24.8221V24.2969C39.1282 24.1458 39.0058 24.0234 38.8548 24.0234H37.145C36.9941 24.0234 36.8716 24.1458 36.8716 24.2969V24.8222C36.5122 24.9188 36.1684 25.0613 35.8454 25.2474L35.4741 24.876C35.3674 24.7693 35.1942 24.7692 35.0874 24.8759L33.8781 26.0845C33.8267 26.1357 33.7979 26.2053 33.7979 26.2778C33.7979 26.3503 33.8267 26.42 33.878 26.4712L34.2498 26.843C34.0637 27.166 33.9212 27.5097 33.8245 27.8692H33.2973C33.1463 27.8692 33.0239 27.9916 33.0239 28.1425L33.0229 29.8522C33.0228 29.9248 33.0517 29.9944 33.103 30.0457C33.1542 30.097 33.2238 30.1258 33.2964 30.1258H33.8245C33.9212 30.4853 34.0637 30.829 34.2498 31.152L33.8759 31.5259C33.7692 31.6326 33.7691 31.8057 33.8759 31.9125L35.0844 33.1219C35.1357 33.1731 35.2052 33.2021 35.2777 33.2021H35.2778C35.3504 33.2021 35.4199 33.1732 35.4712 33.122L35.8453 32.7477C36.1684 32.9338 36.5122 33.0762 36.8716 33.173V33.7031ZM35.9526 32.1726C35.8444 32.1027 35.702 32.1178 35.6108 32.2089L35.2778 32.5419L34.4559 31.7193L34.7885 31.3866C34.8797 31.2955 34.8948 31.1531 34.8249 31.0449C34.577 30.6612 34.4026 30.2407 34.3069 29.7949C34.2798 29.669 34.1685 29.5789 34.0396 29.5789H33.5699L33.5706 28.4161H34.0396C34.1685 28.4161 34.2798 28.3261 34.3069 28.2001C34.4026 27.7544 34.577 27.3338 34.8249 26.9502C34.8948 26.842 34.8797 26.6996 34.7885 26.6085L34.4581 26.2779L35.2806 25.456L35.6108 25.7863C35.702 25.8774 35.8443 25.8924 35.9526 25.8226C36.3361 25.5747 36.7567 25.4003 37.2025 25.3046C37.3284 25.2775 37.4185 25.1661 37.4185 25.0373V24.5703H38.5813V25.0372C38.5813 25.1661 38.6712 25.2775 38.7973 25.3045C39.243 25.4003 39.6636 25.5746 40.0472 25.8225C40.1554 25.8924 40.2978 25.8774 40.3889 25.7861L40.7191 25.456L41.5417 26.2779L41.2112 26.6084C41.12 26.6996 41.1049 26.842 41.1749 26.9502C41.4228 27.3338 41.597 27.7544 41.6928 28.2001C41.7199 28.3261 41.8313 28.4161 41.9602 28.4161H42.4301V29.5789H41.9602C41.8313 29.5789 41.72 29.669 41.6928 29.7949C41.5971 30.2406 41.4228 30.6612 41.1749 31.0448C41.1049 31.1531 41.1201 31.2955 41.2112 31.3866L41.5438 31.7192L40.7219 32.5418L40.389 32.2089C40.2978 32.1177 40.1554 32.1027 40.0472 32.1726C39.6635 32.4205 39.243 32.5947 38.7973 32.6906C38.6712 32.7177 38.5813 32.829 38.5813 32.9579V33.4297H37.4185V32.9579C37.4185 32.8291 37.3284 32.7177 37.2025 32.6906C36.7568 32.5948 36.3362 32.4205 35.9526 32.1726Z"/>
</mask>
<path d="M36.8716 33.7031C36.8716 33.8542 36.9941 33.9766 37.145 33.9766H38.8548C39.0058 33.9766 39.1282 33.8542 39.1282 33.7031V33.173C39.4877 33.0762 39.8314 32.9338 40.1544 32.7477L40.5287 33.122C40.58 33.1732 40.6495 33.2021 40.7221 33.2021C40.7946 33.2021 40.8642 33.1732 40.9155 33.1219L42.1239 31.9125C42.2306 31.8057 42.2306 31.6326 42.1239 31.5259L41.7501 31.152C41.9362 30.829 42.0786 30.4853 42.1754 30.1258H42.7035C42.8545 30.1258 42.9769 30.0034 42.9769 29.8524V28.1426C42.9769 27.9916 42.8545 27.8692 42.7035 27.8692H42.1753C42.0785 27.5098 41.9362 27.166 41.7501 26.843L42.1219 26.4712C42.1732 26.42 42.202 26.3503 42.202 26.2778C42.2019 26.2053 42.1731 26.1356 42.1218 26.0844L40.9124 24.8759C40.8057 24.7692 40.6325 24.7692 40.5257 24.876L40.1544 25.2474C39.8314 25.0613 39.4877 24.9188 39.1282 24.8221V24.2969C39.1282 24.1458 39.0058 24.0234 38.8548 24.0234H37.145C36.9941 24.0234 36.8716 24.1458 36.8716 24.2969V24.8222C36.5122 24.9188 36.1684 25.0613 35.8454 25.2474L35.4741 24.876C35.3674 24.7693 35.1942 24.7692 35.0874 24.8759L33.8781 26.0845C33.8267 26.1357 33.7979 26.2053 33.7979 26.2778C33.7979 26.3503 33.8267 26.42 33.878 26.4712L34.2498 26.843C34.0637 27.166 33.9212 27.5097 33.8245 27.8692H33.2973C33.1463 27.8692 33.0239 27.9916 33.0239 28.1425L33.0229 29.8522C33.0228 29.9248 33.0517 29.9944 33.103 30.0457C33.1542 30.097 33.2238 30.1258 33.2964 30.1258H33.8245C33.9212 30.4853 34.0637 30.829 34.2498 31.152L33.8759 31.5259C33.7692 31.6326 33.7691 31.8057 33.8759 31.9125L35.0844 33.1219C35.1357 33.1731 35.2052 33.2021 35.2777 33.2021H35.2778C35.3504 33.2021 35.4199 33.1732 35.4712 33.122L35.8453 32.7477C36.1684 32.9338 36.5122 33.0762 36.8716 33.173V33.7031ZM35.9526 32.1726C35.8444 32.1027 35.702 32.1178 35.6108 32.2089L35.2778 32.5419L34.4559 31.7193L34.7885 31.3866C34.8797 31.2955 34.8948 31.1531 34.8249 31.0449C34.577 30.6612 34.4026 30.2407 34.3069 29.7949C34.2798 29.669 34.1685 29.5789 34.0396 29.5789H33.5699L33.5706 28.4161H34.0396C34.1685 28.4161 34.2798 28.3261 34.3069 28.2001C34.4026 27.7544 34.577 27.3338 34.8249 26.9502C34.8948 26.842 34.8797 26.6996 34.7885 26.6085L34.4581 26.2779L35.2806 25.456L35.6108 25.7863C35.702 25.8774 35.8443 25.8924 35.9526 25.8226C36.3361 25.5747 36.7567 25.4003 37.2025 25.3046C37.3284 25.2775 37.4185 25.1661 37.4185 25.0373V24.5703H38.5813V25.0372C38.5813 25.1661 38.6712 25.2775 38.7973 25.3045C39.243 25.4003 39.6636 25.5746 40.0472 25.8225C40.1554 25.8924 40.2978 25.8774 40.3889 25.7861L40.7191 25.456L41.5417 26.2779L41.2112 26.6084C41.12 26.6996 41.1049 26.842 41.1749 26.9502C41.4228 27.3338 41.597 27.7544 41.6928 28.2001C41.7199 28.3261 41.8313 28.4161 41.9602 28.4161H42.4301V29.5789H41.9602C41.8313 29.5789 41.72 29.669 41.6928 29.7949C41.5971 30.2406 41.4228 30.6612 41.1749 31.0448C41.1049 31.1531 41.1201 31.2955 41.2112 31.3866L41.5438 31.7192L40.7219 32.5418L40.389 32.2089C40.2978 32.1177 40.1554 32.1027 40.0472 32.1726C39.6635 32.4205 39.243 32.5947 38.7973 32.6906C38.6712 32.7177 38.5813 32.829 38.5813 32.9579V33.4297H37.4185V32.9579C37.4185 32.8291 37.3284 32.7177 37.2025 32.6906C36.7568 32.5948 36.3362 32.4205 35.9526 32.1726Z" fill="#363636" stroke="black" stroke-width="6" mask="url(#path-8-inside-3)"/>
<mask id="path-9-inside-4" fill="white">
<path d="M40.2594 29.0001C40.2594 27.7543 39.2459 26.7407 38 26.7407C36.7542 26.7407 35.7406 27.7543 35.7406 29.0001C35.7406 30.246 36.7542 31.2595 38 31.2595C39.2459 31.2595 40.2594 30.246 40.2594 29.0001ZM36.2875 29.0001C36.2875 28.0558 37.0557 27.2876 38 27.2876C38.9443 27.2876 39.7125 28.0559 39.7125 29.0001C39.7125 29.9443 38.9443 30.7126 38 30.7126C37.0557 30.7126 36.2875 29.9444 36.2875 29.0001Z"/>
</mask>
<path d="M40.2594 29.0001C40.2594 27.7543 39.2459 26.7407 38 26.7407C36.7542 26.7407 35.7406 27.7543 35.7406 29.0001C35.7406 30.246 36.7542 31.2595 38 31.2595C39.2459 31.2595 40.2594 30.246 40.2594 29.0001ZM36.2875 29.0001C36.2875 28.0558 37.0557 27.2876 38 27.2876C38.9443 27.2876 39.7125 28.0559 39.7125 29.0001C39.7125 29.9443 38.9443 30.7126 38 30.7126C37.0557 30.7126 36.2875 29.9444 36.2875 29.0001Z" fill="#363636"/>
<path d="M43.2594 29.0001C43.2594 26.0974 40.9027 23.7407 38 23.7407V29.7407C37.589 29.7407 37.2594 29.4111 37.2594 29.0001H43.2594ZM38 23.7407C35.0973 23.7407 32.7406 26.0974 32.7406 29.0001H38.7406C38.7406 29.4111 38.411 29.7407 38 29.7407V23.7407ZM32.7406 29.0001C32.7406 31.9028 35.0973 34.2595 38 34.2595V28.2595C38.411 28.2595 38.7406 28.5891 38.7406 29.0001H32.7406ZM38 34.2595C40.9027 34.2595 43.2594 31.9028 43.2594 29.0001H37.2594C37.2594 28.5891 37.589 28.2595 38 28.2595V34.2595ZM39.2875 29.0001C39.2875 29.7126 38.7125 30.2876 38 30.2876V24.2876C35.3988 24.2876 33.2875 26.3989 33.2875 29.0001H39.2875ZM38 30.2876C37.2874 30.2876 36.7125 29.7126 36.7125 29.0001H42.7125C42.7125 26.3992 40.6013 24.2876 38 24.2876V30.2876ZM36.7125 29.0001C36.7125 28.2876 37.2874 27.7126 38 27.7126V33.7126C40.6013 33.7126 42.7125 31.6011 42.7125 29.0001H36.7125ZM38 27.7126C38.7125 27.7126 39.2875 28.2876 39.2875 29.0001H33.2875C33.2875 31.6013 35.3988 33.7126 38 33.7126V27.7126Z" fill="black" mask="url(#path-9-inside-4)"/>
<path d="M40.7111 22.9541L40.5182 22.7613L40.5185 22.7611L40.7113 22.9539C40.7113 22.954 40.7112 22.9541 40.7111 22.9541ZM40.7111 22.9541L40.5178 22.762L40.5176 22.7619L40.3246 22.9541M40.7111 22.9541C40.6603 23.005 40.5898 23.0343 40.5178 23.0343C40.4456 23.0343 40.3754 23.005 40.3246 22.9541M40.3246 22.9541L40.5172 22.7615L40.517 22.7613L40.3244 22.9539C40.3244 22.954 40.3245 22.9541 40.3246 22.9541ZM40.3246 22.5672L40.5174 22.76L40.5172 22.7603L40.3244 22.5674C40.3244 22.5673 40.3245 22.5672 40.3246 22.5672ZM40.3246 22.5672L40.5178 22.7596L40.5178 22.7596L40.7111 22.5672M40.3246 22.5672C40.3754 22.5163 40.4456 22.4871 40.5178 22.4871C40.5898 22.4871 40.6603 22.5163 40.7111 22.5672M40.7111 22.5672L40.5182 22.76L40.5185 22.7603L40.7113 22.5674C40.7113 22.5673 40.7112 22.5672 40.7111 22.5672ZM40.5181 22.7607L40.5178 22.7609L40.5178 22.7608L40.5176 22.7607L40.5178 22.7605L40.5178 22.7604L40.5179 22.7605L40.5181 22.7607ZM40.2444 22.7605C40.2444 22.8322 40.2732 22.902 40.3236 22.9531L40.5166 22.7609L40.5163 22.7605L40.3231 22.5686C40.2731 22.6196 40.2444 22.6893 40.2444 22.7605ZM40.519 22.7605L40.7121 22.5682C40.7625 22.6193 40.7912 22.6894 40.7912 22.7605C40.7912 22.832 40.7624 22.902 40.7121 22.9531L40.5189 22.7607L40.519 22.7605Z" fill="#363636" stroke="black" stroke-width="3"/>
<mask id="path-12-inside-5" fill="white">
<path d="M35.4942 34.9707C35.4223 34.9707 35.3517 35 35.3008 35.0508C35.25 35.1017 35.2207 35.1723 35.2207 35.2441C35.2207 35.3163 35.25 35.3866 35.3008 35.4375C35.3517 35.4883 35.4223 35.5176 35.4942 35.5176C35.5661 35.5176 35.6367 35.4883 35.6875 35.4375C35.7383 35.3866 35.7676 35.316 35.7676 35.2441C35.7676 35.1723 35.7383 35.1017 35.6875 35.0508C35.6367 35 35.5661 34.9707 35.4942 34.9707Z"/>
</mask>
<path d="M35.4942 34.9707C35.4223 34.9707 35.3517 35 35.3008 35.0508C35.25 35.1017 35.2207 35.1723 35.2207 35.2441C35.2207 35.3163 35.25 35.3866 35.3008 35.4375C35.3517 35.4883 35.4223 35.5176 35.4942 35.5176C35.5661 35.5176 35.6367 35.4883 35.6875 35.4375C35.7383 35.3866 35.7676 35.316 35.7676 35.2441C35.7676 35.1723 35.7383 35.1017 35.6875 35.0508C35.6367 35 35.5661 34.9707 35.4942 34.9707Z" fill="#363636"/>
<path d="M35.3008 35.0508L33.1795 32.9295L33.1795 32.9295L35.3008 35.0508ZM35.3008 35.4375L33.1795 37.5588L33.1795 37.5588L35.3008 35.4375ZM35.6875 35.4375L37.8088 37.5588L37.8088 37.5588L35.6875 35.4375ZM35.6875 35.0508L37.8088 32.9295L37.8088 32.9295L35.6875 35.0508ZM35.4942 31.9707C34.6259 31.9707 33.7925 32.3165 33.1795 32.9295L37.4222 37.1721C36.9109 37.6834 36.2187 37.9707 35.4942 37.9707V31.9707ZM33.1795 32.9295C32.5666 33.5424 32.2207 34.3759 32.2207 35.2441H38.2207C38.2207 35.9686 37.9334 36.6609 37.4222 37.1721L33.1795 32.9295ZM32.2207 35.2441C32.2207 36.1146 32.5679 36.9472 33.1795 37.5588L37.4222 33.3162C37.9321 33.8261 38.2207 34.5181 38.2207 35.2441H32.2207ZM33.1795 37.5588C33.7925 38.1717 34.6259 38.5176 35.4942 38.5176V32.5176C36.2187 32.5176 36.9109 32.8049 37.4222 33.3161L33.1795 37.5588ZM35.4942 38.5176C36.3624 38.5176 37.1959 38.1717 37.8088 37.5588L33.5662 33.3161C34.0774 32.8049 34.7697 32.5176 35.4942 32.5176V38.5176ZM37.8088 37.5588C38.4218 36.9458 38.7676 36.1124 38.7676 35.2441H32.7676C32.7676 34.5197 33.0549 33.8274 33.5662 33.3162L37.8088 37.5588ZM38.7676 35.2441C38.7676 34.3759 38.4218 33.5424 37.8088 32.9295L33.5662 37.1721C33.0549 36.6609 32.7676 35.9686 32.7676 35.2441H38.7676ZM37.8088 32.9295C37.1959 32.3165 36.3624 31.9707 35.4942 31.9707V37.9707C34.7697 37.9707 34.0774 37.6834 33.5662 37.1721L37.8088 32.9295Z" fill="black" mask="url(#path-12-inside-5)"/>
</g>
<defs>
<clipPath id="clip0">
<rect width="62" height="62" fill="white"/>
</clipPath>
<clipPath id="clip1">
<rect x="31" y="22" width="14" height="14" fill="white"/>
</clipPath>
</defs>
</svg>
