<svg width="233" height="233" viewBox="0 0 233 233" fill="none" xmlns="http://www.w3.org/2000/svg">
<path d="M218.827 117.735C218.827 174.48 173.01 220.474 116.5 220.474C59.9901 220.474 14.1731 174.48 14.1731 117.735C14.1731 60.9904 59.9901 14.9966 116.5 14.9966C173.01 14.9966 218.827 60.9904 218.827 117.735Z" stroke="#E2DBDB" stroke-opacity="0.4" stroke-width="2"/>
<circle cx="116.5" cy="116.5" r="115.5" stroke="#E2DBDB" stroke-opacity="0.4" stroke-width="2"/>
<path d="M208.124 117.735C208.124 168.106 167.107 208.947 116.5 208.947C65.8935 208.947 24.8763 168.106 24.8763 117.735C24.8763 67.3642 65.8935 26.5229 116.5 26.5229C167.107 26.5229 208.124 67.3642 208.124 117.735Z" stroke="#E2DBDB" stroke-opacity="0.4" stroke-width="2"/>
<circle cx="117.323" cy="117.323" r="79.2738" stroke="#E2DBDB" stroke-opacity="0.4" stroke-width="2"/>
</svg>
