<svg width="53" height="47" viewBox="0 0 53 47" fill="none" xmlns="http://www.w3.org/2000/svg">
<g clip-path="url(#clip0)">
<path d="M0.96241 34.2742H3.87668C4.21737 36.8809 6.70723 38.8473 9.66596 38.8473C12.6253 38.8473 15.1145 36.8809 15.4555 34.2742H34.3009C34.6425 36.8809 37.1314 38.8473 40.0902 38.8473C43.0495 38.8473 45.5384 36.8809 45.88 34.2742H52.0289C52.5653 34.2742 53.0001 33.8886 53.0001 33.4129V9.0173C53.0001 8.54158 52.5653 8.15576 52.0289 8.15576H18.3211C17.7852 8.15576 17.3502 8.54158 17.3502 9.0173V13.8496H9.12189C8.80434 13.8504 8.50688 13.9884 8.32543 14.2203L3.01202 20.965L0.933486 23.5493L0.17569 24.5056C0.062127 24.6495 0.000930892 24.8207 0.000321972 24.9965V33.3872C-0.00728948 33.6184 0.0904416 33.8427 0.27129 34.0096C0.452138 34.1767 0.701489 34.272 0.96241 34.2742ZM9.64647 36.8582C7.50095 36.8582 5.76098 35.3155 5.76098 33.4129C5.76098 31.5097 7.50095 29.967 9.64647 29.967C11.7926 29.967 13.5323 31.5097 13.5323 33.4129C13.5323 35.3228 11.8005 36.878 9.64647 36.9014V36.8582ZM40.0707 36.8582C37.9249 36.8582 36.1849 35.3155 36.1849 33.4129C36.1849 31.5097 37.9249 29.967 40.0707 29.967C42.2171 29.967 43.9565 31.5097 43.9565 33.4129C43.9568 35.3228 42.2247 36.878 40.0707 36.9014V36.8582ZM51.0379 9.87857V25.3156H24.6645C24.128 25.3156 23.693 25.7011 23.693 26.1769C23.693 26.6526 24.128 27.0384 24.6645 27.0384H51.0379V32.5513H45.8609C45.5193 29.9449 43.03 27.9788 40.0707 27.9788C37.1119 27.9788 34.6227 29.9449 34.2814 32.5513H19.2926V13.798H26.3058C26.8423 13.798 27.2773 13.4122 27.2773 12.9365C27.2773 12.4608 26.8423 12.075 26.3058 12.075H19.2926V9.87857H51.0379ZM9.62729 15.5727H17.3983V32.5513H15.4555C15.1145 29.9449 12.6253 27.9788 9.66596 27.9788C6.70723 27.9788 4.21737 29.9449 3.87668 32.5513H1.93363V25.2721L2.225 24.9017H14.0763C14.6128 24.9017 15.0476 24.5164 15.0476 24.0407V17.6662C15.0476 17.1905 14.6128 16.8047 14.0763 16.8047H8.63628L9.62729 15.5727ZM7.27657 18.5448H13.1048V23.1962H3.57527L7.27657 18.5448Z" fill="#363636"/>
</g>
<defs>
<clipPath id="clip0">
<rect width="53" height="47" fill="white"/>
</clipPath>
</defs>
</svg>
