<svg width="47" height="47" viewBox="0 0 47 47" fill="none" xmlns="http://www.w3.org/2000/svg">
<g clip-path="url(#clip0)">
<path d="M11.371 19.7096V18.1934C7.60878 18.1934 4.54839 15.133 4.54839 11.3708H3.03226C3.03226 15.9685 6.77335 19.7096 11.371 19.7096Z" fill="#363636"/>
<path d="M11.3709 16.6774C14.2962 16.6774 16.6774 14.2962 16.6774 11.3709C16.6774 8.44562 14.2962 6.06445 11.3709 6.06445C8.44563 6.06445 6.06447 8.44562 6.06447 11.3709C6.06447 14.2962 8.44563 16.6774 11.3709 16.6774ZM11.3709 7.58058C13.4608 7.58058 15.1612 9.28104 15.1612 11.3709C15.1612 13.4608 13.4608 15.1612 11.3709 15.1612C9.28106 15.1612 7.5806 13.4608 7.5806 11.3709C7.5806 9.28104 9.28106 7.58058 11.3709 7.58058Z" fill="#363636"/>
<path d="M11.371 13.6451C12.6247 13.6451 13.6452 12.6246 13.6452 11.3709C13.6452 10.1172 12.6247 9.09668 11.371 9.09668C10.1173 9.09668 9.09677 10.1172 9.09677 11.3709C9.09677 12.6246 10.1173 13.6451 11.371 13.6451ZM11.371 10.6128C11.7892 10.6128 12.129 10.9526 12.129 11.3709C12.129 11.7891 11.7892 12.1289 11.371 12.1289C10.9527 12.1289 10.6129 11.7891 10.6129 11.3709C10.6129 10.9526 10.9527 10.6128 11.371 10.6128Z" fill="#363636"/>
<path d="M47 36.1672V30.5424L44.9486 29.827C44.7184 29.0704 44.4171 28.3412 44.0481 27.6497L44.9927 25.6954L44.2605 24.9632C43.9215 24.5179 43.3651 23.9305 42.9443 23.5052C42.4205 22.9755 41.8164 22.4007 41.4063 22.0416L36.3627 17.6309L36.7957 16.3324L38.5506 17.2104L41.4678 14.2933L40.5898 12.5384L42.4516 11.9177V7.79274L40.5898 7.17274L41.4678 5.41787L38.5506 2.50072L36.7957 3.37872L36.1757 1.51613H32.0508L31.4308 3.37798L29.6759 2.49998L26.7588 5.41713L27.6368 7.172L25.7742 7.792V8.37054L19.5346 2.91418C17.387 1.03494 14.6331 0 11.7789 0V0.0203582C11.6423 0.0159164 11.509 0 11.371 0C5.10102 0 0 5.10102 0 11.371C0 11.509 0.0159164 11.6423 0.0203582 11.7789H0C0 14.6331 1.03494 17.3863 2.91418 19.5339L8.37424 25.7742H7.792L7.172 27.636L5.41713 26.758L2.49998 29.6752L3.37798 31.4301L1.51613 32.0501V36.175L3.37798 36.795L2.49998 38.5499L5.41713 41.467L7.172 40.589L7.792 42.4516H11.9169L12.5369 40.5898L14.2918 41.4678L17.209 38.5506L16.331 36.7957L17.638 36.3604L22.0383 41.3897C22.3833 41.7831 22.9004 42.3309 23.3871 42.8214C23.8479 43.2848 24.4824 43.8956 24.9584 44.2587L25.6931 44.9934L27.6475 44.0488C28.3386 44.4171 29.0681 44.7191 29.8244 44.9494L30.5424 47H36.1672L36.8827 44.9486C37.6393 44.7184 38.3685 44.4171 39.0599 44.0481L41.0143 44.9927L44.9927 41.0143L44.0481 39.0599C44.4164 38.3685 44.7184 37.6393 44.9486 36.8827L47 36.1672ZM22.6616 27.6497C22.2933 28.3412 21.9913 29.0704 21.761 29.827L19.7097 30.5424V36.1672L21.761 36.8827C21.9913 37.6393 22.2926 38.3685 22.6616 39.0599L22.4318 39.5352L6.95435 21.8488C8.3128 22.4236 9.80561 22.7419 11.371 22.7419C17.6409 22.7419 22.7419 17.6409 22.7419 11.371C22.7419 9.80413 22.4236 8.31058 21.848 6.95139L39.5452 22.4273L39.0607 22.6616C38.3696 22.2933 37.64 21.9913 36.8835 21.761L36.1672 19.7097H30.5424L29.827 21.761C29.0704 21.9913 28.3412 22.2926 27.6497 22.6616L25.6954 21.717L21.717 25.6954L22.6616 27.6497ZM27.2903 8.88542L29.0308 8.3054L29.1581 7.96967C29.1955 7.87158 29.234 7.77682 29.2751 7.68281L29.422 7.35485L28.6025 5.71584L29.9739 4.34444L31.6129 5.16394L31.9409 5.017C32.0349 4.97517 32.1296 4.93741 32.2277 4.90003L32.5635 4.7727L33.1435 3.03226H35.0831L35.6631 4.7727L35.9988 4.90003C36.0969 4.93741 36.1917 4.97591 36.2857 5.017L36.6136 5.16394L38.2526 4.34444L39.624 5.71584L38.8045 7.35485L38.9515 7.68281C38.9933 7.77682 39.0311 7.87158 39.0685 7.96967L39.1958 8.3054L40.9355 8.88542V10.825L39.195 11.405L39.0677 11.7407C39.0303 11.8388 38.9918 11.9336 38.9507 12.0276L38.8038 12.3556L39.6233 13.9946L38.2519 15.366L36.6129 14.5465L36.2849 14.6934C36.1909 14.7352 36.0962 14.773 35.9981 14.8104L35.6623 14.9377L35.1256 16.5493L27.2903 9.69641V8.88542ZM11.371 1.51613C16.8048 1.51613 21.2258 5.93718 21.2258 11.371C21.2258 16.8048 16.8048 21.2258 11.371 21.2258C5.93718 21.2258 1.51613 16.8048 1.51613 11.371C1.51613 5.93718 5.93718 1.51613 11.371 1.51613ZM14.937 35.6623L14.8096 35.9981C14.7723 36.0962 14.7338 36.1909 14.6927 36.2849L14.5457 36.6129L15.3652 38.2519L13.9938 39.6233L12.3548 38.8038L12.0269 38.9507C11.9329 38.9926 11.8381 39.0303 11.74 39.0677L11.4043 39.195L10.8243 40.9355H8.88468L8.30466 39.195L7.96893 39.0677C7.87084 39.0303 7.77608 38.9918 7.68207 38.9507L7.35411 38.8038L5.71584 39.6233L4.34444 38.2519L5.16394 36.6129L5.017 36.2849C4.97517 36.1909 4.93741 36.0962 4.90003 35.9981L4.7727 35.6623L3.03226 35.0823V33.1427L4.7727 32.5627L4.90003 32.227C4.93741 32.1289 4.97591 32.0341 5.017 31.9401L5.16394 31.6122L4.34444 29.9739L5.71584 28.6025L7.35485 29.422L7.68281 29.2751C7.77682 29.2332 7.87158 29.1955 7.96967 29.1581L8.3054 29.0308L8.88542 27.2903H9.7016L16.556 35.1234L14.937 35.6623ZM43.6994 35.7131L43.5954 36.1006C43.3544 37.0012 42.9991 37.8607 42.539 38.6561L42.3372 39.004L43.1582 40.7034L40.7034 43.1582L39.004 42.3372L38.6561 42.539C37.8607 42.9983 37.0004 43.3537 36.1006 43.5954L35.7131 43.6994L35.0908 45.4839H31.6188L30.9966 43.6994L30.6091 43.5954C29.7085 43.3544 28.849 42.9991 28.0536 42.539L27.7056 42.3372L26.0063 43.1582L23.5515 40.7034L24.3724 39.004L24.1707 38.6561C23.7114 37.8607 23.356 37.0004 23.1143 36.1006L23.0103 35.7131L21.2258 35.0908V31.6188L23.0103 30.9966L23.1143 30.6091C23.3553 29.7085 23.7106 28.849 24.1707 28.0536L24.3724 27.7056L23.5515 26.0063L26.0063 23.5515L27.7056 24.3724L28.0536 24.1707C28.849 23.7114 29.7092 23.356 30.6091 23.1143L30.9966 23.0103L31.6188 21.2258H35.0908L35.7131 23.0103L36.1006 23.1143C37.0012 23.3553 37.8607 23.7106 38.6561 24.1707L39.004 24.3724L40.7034 23.5515L43.1582 26.0063L42.3372 27.7056L42.539 28.0536C42.9983 28.849 43.3537 29.7092 43.5954 30.6091L43.6994 30.9966L45.4839 31.6188V35.0908L43.6994 35.7131Z" fill="#363636"/>
<path d="M33.3548 25.7742C29.1747 25.7742 25.7742 29.1747 25.7742 33.3548C25.7742 37.5349 29.1747 40.9355 33.3548 40.9355C37.5349 40.9355 40.9355 37.5349 40.9355 33.3548C40.9355 29.1747 37.5349 25.7742 33.3548 25.7742ZM33.3548 39.4193C30.0109 39.4193 27.2903 36.6987 27.2903 33.3548C27.2903 30.0109 30.0109 27.2903 33.3548 27.2903C36.6988 27.2903 39.4193 30.0109 39.4193 33.3548C39.4193 36.6987 36.6988 39.4193 33.3548 39.4193Z" fill="#363636"/>
<path d="M33.3549 28.8064C30.8464 28.8064 28.8065 30.8463 28.8065 33.3548C28.8065 35.8633 30.8464 37.9032 33.3549 37.9032C35.8634 37.9032 37.9033 35.8633 37.9033 33.3548C37.9033 30.8463 35.8634 28.8064 33.3549 28.8064ZM33.3549 36.387C31.6825 36.387 30.3226 35.0271 30.3226 33.3548C30.3226 31.6825 31.6825 30.3225 33.3549 30.3225C35.0272 30.3225 36.3871 31.6825 36.3871 33.3548C36.3871 35.0271 35.0272 36.387 33.3549 36.387Z" fill="#363636"/>
<path d="M37.9032 9.85478C37.9032 7.76492 36.2027 6.06445 34.1129 6.06445C32.023 6.06445 30.3225 7.76492 30.3225 9.85478C30.3225 11.9446 32.023 13.6451 34.1129 13.6451C36.2027 13.6451 37.9032 11.9446 37.9032 9.85478ZM31.8387 9.85478C31.8387 8.60108 32.8592 7.58058 34.1129 7.58058C35.3666 7.58058 36.3871 8.60108 36.3871 9.85478C36.3871 11.1085 35.3666 12.129 34.1129 12.129C32.8592 12.129 31.8387 11.1085 31.8387 9.85478Z" fill="#363636"/>
<path d="M6.06447 34.1128C6.06447 36.2027 7.76493 37.9032 9.85479 37.9032C11.9447 37.9032 13.6451 36.2027 13.6451 34.1128C13.6451 32.023 11.9447 30.3225 9.85479 30.3225C7.76493 30.3225 6.06447 32.023 6.06447 34.1128ZM12.129 34.1128C12.129 35.3665 11.1085 36.387 9.85479 36.387C8.6011 36.387 7.5806 35.3665 7.5806 34.1128C7.5806 32.8591 8.6011 31.8386 9.85479 31.8386C11.1085 31.8386 12.129 32.8591 12.129 34.1128Z" fill="#363636"/>
</g>
<defs>
<clipPath id="clip0">
<rect width="47" height="47" fill="white"/>
</clipPath>
</defs>
</svg>
