<svg width="47" height="47" viewBox="0 0 47 47" fill="none" xmlns="http://www.w3.org/2000/svg">
<g clip-path="url(#clip0)">
<path d="M12.8156 13.2472C11.5194 13.8506 10.6135 15.156 10.6135 16.6774C10.6135 18.6226 12.0917 20.2115 13.9808 20.4253C14.3674 21.7557 15.0815 22.9754 16.0882 23.9821L19.0447 26.9378C19.7603 27.6534 20.7124 28.0484 21.7244 28.0484H25.2775C26.2895 28.0484 27.2416 27.6534 27.9572 26.9378L30.9137 23.9821C31.9204 22.9754 32.6345 21.7549 33.0211 20.4253C34.9094 20.2115 36.3877 18.6226 36.3877 16.6774C36.3877 15.4334 35.7767 14.3365 34.848 13.6452H34.8715V11.371C34.8715 5.10102 29.7705 0 23.5006 0C20.2576 0 17.2026 1.38347 15.0444 3.79032H7.58121V4.54839C7.58121 8.31294 9.7053 11.5885 12.8156 13.2472ZM12.1296 16.6774C12.1296 15.6904 12.7656 14.8565 13.6457 14.5427V18.0859C13.6457 18.3338 13.6601 18.5794 13.6814 18.8235C12.783 18.5195 12.1296 17.6773 12.1296 16.6774ZM31.8393 18.0859C31.8393 19.9083 31.1297 21.6215 29.841 22.9102L26.8846 25.8659C26.4616 26.2897 25.8756 26.5323 25.2767 26.5323H21.7237C21.1248 26.5323 20.5396 26.2897 20.1158 25.8659L17.1594 22.9102C15.8706 21.6215 15.1611 19.9083 15.1611 18.0859V14.128C15.8934 14.3016 16.6522 14.4032 17.436 14.4032H31.8393V18.0859ZM34.8715 16.6774C34.8715 17.6773 34.2181 18.5195 33.3198 18.8227C33.341 18.5794 33.3554 18.3338 33.3554 18.0859V14.5427C34.2355 14.8565 34.8715 15.6904 34.8715 16.6774ZM22.7425 5.30645V3.79032H17.2238C18.9779 2.33635 21.1832 1.51613 23.5006 1.51613C28.9344 1.51613 33.3554 5.93716 33.3554 11.371V12.9637C33.1105 12.9136 32.8566 12.8871 32.5973 12.8871H17.436C13.0931 12.8871 9.51579 9.55085 9.13145 5.30645H22.7425Z" fill="#363636"/>
<path d="M42.434 36.9738C41.9253 33.9196 39.7838 31.4134 36.8455 30.434L30.3231 28.2598V27.2903H28.807V28.5373C28.3878 29.0012 26.8959 30.3225 23.5005 30.3225C20.1052 30.3225 18.6133 29.0012 18.1941 28.5373V27.2903H16.6779V28.2598L10.1556 30.434C7.21806 31.4134 5.07653 33.9196 4.56711 36.9738L2.89558 47H44.1047L42.434 36.9738ZM17.198 29.685C17.9462 30.4355 19.8345 31.8387 23.5005 31.8387C27.1665 31.8387 29.0549 30.4355 29.8031 29.685L32.5154 30.5886L30.4747 39.4345C30.4232 39.4314 30.3747 39.4193 30.3231 39.4193H28.2832L30.2966 32.038L28.8335 31.6401L26.7117 39.4193H20.2886L18.1668 31.6393L16.7037 32.0373L18.7179 39.4193H16.6779C16.6264 39.4193 16.5779 39.4314 16.5263 39.4345L14.4849 30.5886L17.198 29.685ZM14.4038 41.6935V45.4838H11.4511L12.1258 38.7371L10.6172 38.5862L9.92738 45.4846H4.68612L6.06277 37.2232C6.47895 34.7246 8.23159 32.6741 10.6354 31.872L13.0408 31.0708L15.1133 40.0515C14.6782 40.4654 14.4038 41.0469 14.4038 41.6935ZM15.9199 45.4838V41.6935C15.9199 41.2751 16.2603 40.9354 16.6779 40.9354H19.7944C18.8081 41.8997 18.1941 43.2415 18.1941 44.7258C18.1941 44.9797 18.2229 45.2322 18.26 45.4838H15.9199ZM27.2029 45.4838H19.7981C19.7451 45.2322 19.7102 44.979 19.7102 44.7258C19.7102 42.6358 21.4105 40.9354 23.5005 40.9354C25.5905 40.9354 27.2909 42.6358 27.2909 44.7258C27.2909 44.979 27.256 45.2322 27.2029 45.4838ZM31.0812 45.4838H28.741C28.7782 45.2322 28.807 44.9797 28.807 44.7258C28.807 43.2415 28.1929 41.8997 27.2067 40.9354H30.3231C30.7408 40.9354 31.0812 41.2751 31.0812 41.6935V45.4838ZM37.0737 45.4838L36.3838 38.5854L34.8753 38.7363L35.55 45.4831H32.5973V41.6928C32.5973 41.0461 32.3229 40.4647 31.8885 40.0508L33.9611 31.07L36.3664 31.8713C38.7702 32.6733 40.5221 34.7239 40.939 37.2224L42.3149 45.4838H37.0737Z" fill="#363636"/>
</g>
<defs>
<clipPath id="clip0">
<rect width="47" height="47" fill="white"/>
</clipPath>
</defs>
</svg>
