<svg width="47" height="47" viewBox="0 0 47 47" fill="none" xmlns="http://www.w3.org/2000/svg">
<path d="M41.1184 25.167L37.4866 24.6502L35.2501 23.7403V22.0272C36.0644 21.42 36.743 20.6495 37.2425 19.765C37.742 18.8805 38.0514 17.9015 38.1509 16.8906H38.1876C38.8964 16.8901 39.5811 16.6334 40.1154 16.1677C40.6498 15.7021 40.9978 15.0589 41.0952 14.3569C41.1926 13.6548 41.0329 12.9412 40.6455 12.3476C40.2581 11.7541 39.6692 11.3206 38.9873 11.1272C39.1362 10.5639 39.1134 9.9691 38.922 9.41891V6.60938C38.922 5.246 38.3804 3.93846 37.4163 2.9744C36.4523 2.01035 35.1447 1.46875 33.7813 1.46875H27.9063C26.543 1.46875 25.2354 2.01035 24.2714 2.9744C23.3073 3.93846 22.7657 5.246 22.7657 6.60938V9.41891C22.5743 9.9691 22.5515 10.5639 22.7003 11.1272C22.0185 11.3206 21.4295 11.7541 21.0422 12.3476C20.6548 12.9412 20.4951 13.6548 20.5925 14.3569C20.6899 15.0589 21.0379 15.7021 21.5722 16.1677C22.1066 16.6334 22.7913 16.8901 23.5001 16.8906H23.5368C23.6362 17.9016 23.9456 18.8807 24.4451 19.7653C24.9446 20.6498 25.6232 21.4204 26.4376 22.0277V23.7718L24.161 24.8642L20.2153 25.7051C19.1599 25.9392 18.2042 26.4975 17.4818 27.3018C16.7594 28.106 16.3065 29.116 16.1864 30.1903C15.7265 29.7735 15.2241 29.406 14.6876 29.0938V17.9072C16.4364 16.9009 17.7858 15.3236 18.5093 13.4401C19.2328 11.5567 19.2863 9.4816 18.6608 7.56333C18.6219 7.44425 18.5531 7.33712 18.4611 7.25213C18.369 7.16713 18.2568 7.10709 18.135 7.07773C18.0132 7.04836 17.8859 7.05064 17.7653 7.08435C17.6446 7.11806 17.5346 7.18208 17.4456 7.27031L12.7052 11.974C12.5052 12.1702 12.2359 12.2797 11.9557 12.2787C11.6818 12.2765 11.4198 12.1664 11.2266 11.9723L8.59016 9.33574C8.39616 9.14254 8.2861 8.88067 8.28383 8.60688C8.28257 8.32842 8.39066 8.0606 8.58484 7.86103L13.2922 3.11696C13.3805 3.02801 13.4445 2.91795 13.4782 2.79724C13.5119 2.67654 13.5142 2.54922 13.4848 2.4274C13.4554 2.30557 13.3953 2.1933 13.3103 2.10126C13.2252 2.00922 13.118 1.94048 12.9989 1.90157C10.9286 1.22824 8.68223 1.34555 6.69331 2.23088C4.70439 3.1162 3.11385 4.70678 2.22858 6.69573C1.34332 8.68467 1.22606 10.931 1.89945 13.0013C2.57284 15.0716 3.98914 16.8191 5.87508 17.9067V29.0928C4.12626 30.0991 2.77684 31.6764 2.05336 33.5599C1.32988 35.4433 1.27638 37.5184 1.90184 39.4367C1.94079 39.5557 2.00955 39.6629 2.10159 39.7479C2.19363 39.8329 2.30589 39.8929 2.42768 39.9223C2.54947 39.9516 2.67675 39.9494 2.79741 39.9156C2.91808 39.8819 3.02811 39.8179 3.11705 39.7297L7.85744 35.026C8.05746 34.8298 8.32677 34.7203 8.60696 34.7213C8.88085 34.7235 9.14283 34.8336 9.3361 35.0277L11.9725 37.664C12.1666 37.8573 12.2767 38.1193 12.2788 38.3932C12.2801 38.6717 12.172 38.9395 11.9778 39.1391L7.2704 43.883C7.18213 43.972 7.1181 44.0821 7.08441 44.2028C7.05073 44.3236 7.0485 44.4509 7.07795 44.5727C7.10739 44.6946 7.16753 44.8068 7.25264 44.8989C7.33774 44.9909 7.44498 45.0596 7.56415 45.0984C10.606 46.0921 14.069 45.2736 16.3624 43.0691C16.6141 43.7878 17.0827 44.4107 17.7035 44.8517C18.3243 45.2927 19.0667 45.5302 19.8282 45.5312H22.0313C22.0823 45.5312 30.1095 43.8428 30.1095 43.8428V45.5312H31.5782V43.8467L39.5051 45.5156C39.5548 45.526 39.6055 45.5312 39.6563 45.5312H41.8595C42.833 45.5302 43.7663 45.1429 44.4547 44.4546C45.143 43.7662 45.5302 42.8329 45.5313 41.8594V30.2563C45.5241 29.0209 45.0753 27.8289 44.266 26.8956C43.4567 25.9622 42.3402 25.3491 41.1184 25.167ZM30.8438 33.0639L29.7864 30.1094H31.8978L30.8438 33.0639ZM27.9063 22.8837C28.8323 23.2902 29.8326 23.5001 30.8438 23.5001C31.8551 23.5001 32.8554 23.2902 33.7813 22.8837V24.1229L32.3724 28.6406H29.3156L27.9063 24.1225V22.8837ZM33.6069 29.6161L34.9791 25.2159L36.5213 25.8432L36.083 31.1032L33.611 29.6907L33.6346 29.6259L33.6069 29.6161ZM33.8621 11.5086C31.8638 11.1748 29.8239 11.1748 27.8256 11.5086L25.8115 11.8442C25.5902 11.8808 25.3634 11.8671 25.1481 11.8041C24.9328 11.7411 24.7344 11.6305 24.5677 11.4803C24.401 11.3302 24.2703 11.1444 24.1852 10.9369C24.1 10.7293 24.0628 10.5052 24.0761 10.2812H37.6116C37.6249 10.5052 37.5876 10.7293 37.5025 10.9369C37.4174 11.1444 37.2867 11.3302 37.1199 11.4803C36.9532 11.6305 36.7549 11.7411 36.5395 11.8041C36.3242 11.8671 36.0975 11.8808 35.8761 11.8442L33.8621 11.5086ZM33.047 8.8125H28.6407V7.34375H33.047V8.8125ZM39.6563 13.9531C39.6555 14.3424 39.5005 14.7155 39.2252 14.9908C38.9499 15.266 38.5769 15.421 38.1876 15.4219V12.4936C38.1905 12.4906 38.1936 12.488 38.1968 12.4851C38.5845 12.4879 38.9554 12.6437 39.2287 12.9187C39.5021 13.1936 39.6558 13.5654 39.6563 13.9531ZM24.2345 6.60938C24.2345 5.63553 24.6213 4.70158 25.3099 4.01297C25.9985 3.32436 26.9325 2.9375 27.9063 2.9375H33.7813C34.7552 2.9375 35.6891 3.32436 36.3777 4.01297C37.0664 4.70158 37.4532 5.63553 37.4532 6.60938V8.8125H34.5157V6.60938C34.5157 6.41461 34.4383 6.22782 34.3006 6.09009C34.1629 5.95237 33.9761 5.875 33.7813 5.875H27.9063C27.7116 5.875 27.5248 5.95237 27.3871 6.09009C27.2493 6.22782 27.172 6.41461 27.172 6.60938V8.8125H24.2345V6.60938ZM22.4628 14.9904C22.2576 14.7858 22.1175 14.5249 22.0604 14.2408C22.0033 13.9566 22.0316 13.6619 22.1418 13.3938C22.2519 13.1257 22.4391 12.8963 22.6795 12.7344C22.9199 12.5726 23.2029 12.4856 23.4927 12.4844L23.5001 12.4919V15.4219C23.111 15.4201 22.7383 15.2651 22.4628 14.9904ZM24.9688 16.1562V13.2754C25.3261 13.3473 25.6936 13.3533 26.053 13.293L26.502 13.2181C26.4376 13.3987 26.4214 13.5929 26.4551 13.7817C26.4887 13.9704 26.5711 14.1471 26.694 14.2943C26.8168 14.4415 26.976 14.554 27.1557 14.6208C27.3354 14.6876 27.5294 14.7064 27.7186 14.6752C27.9078 14.644 28.0856 14.564 28.2343 14.4431C28.3831 14.3222 28.4977 14.1645 28.5669 13.9857C28.6361 13.8069 28.6574 13.6131 28.6287 13.4235C28.6 13.234 28.5224 13.0552 28.4034 12.9048C30.0217 12.6679 31.6659 12.6679 33.2843 12.9048C33.165 13.0552 33.0872 13.2341 33.0583 13.4238C33.0295 13.6136 33.0507 13.8075 33.1199 13.9865C33.189 14.1655 33.3037 14.3234 33.4526 14.4445C33.6015 14.5655 33.7794 14.6457 33.9688 14.6769C34.1581 14.7081 34.3523 14.6893 34.5322 14.6224C34.7121 14.5555 34.8713 14.4427 34.9943 14.2954C35.1172 14.148 35.1995 13.9711 35.2331 13.7822C35.2666 13.5932 35.2503 13.3988 35.1856 13.2181L35.6346 13.293C35.95 13.3564 36.5289 13.3141 36.7188 13.2758V16.1562C36.7188 17.7144 36.0999 19.2087 34.9981 20.3105C33.8963 21.4123 32.402 22.0312 30.8438 22.0312C29.2857 22.0312 27.7914 21.4123 26.6896 20.3105C25.5878 19.2087 24.9688 17.7144 24.9688 16.1562ZM26.7237 25.264L28.0797 29.6121L28.0522 29.622L28.0772 29.6907L25.605 31.1032L25.18 26.0047L26.7237 25.264ZM20.5247 27.141L23.7437 26.455L24.2369 32.3735C24.2472 32.4966 24.2883 32.615 24.3565 32.7179C24.4246 32.8209 24.5176 32.905 24.6269 32.9624C24.734 33.0188 25.2204 33.0146 25.3332 32.9501L28.5814 31.0939L30.1095 35.377V37.0555L25.8808 36.7302L22.7657 35.3952V32.3125H21.297V34.7658L20.8518 34.575C20.7604 34.5358 20.662 34.5156 20.5626 34.5156H17.6251V30.7336C17.6297 29.8948 17.9192 29.0825 18.446 28.4297C18.9728 27.777 19.7057 27.3226 20.5247 27.141ZM11.1928 44.009C10.5424 44.0882 9.88448 44.0809 9.23604 43.9874L13.0241 40.1698C13.4895 39.6957 13.7494 39.0574 13.7476 38.3931C13.7478 38.0644 13.6828 37.7389 13.5564 37.4355C13.43 37.1321 13.2446 36.8567 13.0111 36.6254L10.3747 33.989C10.1434 33.7554 9.86803 33.5701 9.5646 33.4437C9.26116 33.3173 8.93567 33.2523 8.60696 33.2525C7.94075 33.2509 7.3008 33.5122 6.8261 33.9796L3.01277 37.7639C2.79392 36.248 3.05538 34.7016 3.76043 33.3419C4.46548 31.9822 5.57871 30.8774 6.94378 30.1828C7.06417 30.1213 7.16523 30.0277 7.23582 29.9123C7.30641 29.797 7.34379 29.6644 7.34383 29.5292V17.4708C7.34384 17.3356 7.30652 17.203 7.236 17.0877C7.16548 16.9723 7.06449 16.8787 6.94415 16.8171C5.66941 16.1644 4.6127 15.154 3.90345 13.9098C3.1942 12.6656 2.8632 11.2416 2.95099 9.81217C3.16313 6.35602 5.92447 3.42311 9.36988 2.99102C10.0202 2.91188 10.6782 2.91914 11.3266 3.01259L7.53854 6.83024C7.07319 7.30431 6.81328 7.94258 6.81508 8.60688C6.81488 8.93559 6.87987 9.26107 7.00629 9.5645C7.1327 9.86793 7.31804 10.1433 7.55157 10.3746L10.188 13.011C10.4193 13.2446 10.6946 13.4299 10.9981 13.5563C11.3015 13.6827 11.627 13.7477 11.9557 13.7475C12.6218 13.749 13.2615 13.4877 13.7361 13.0204L17.5499 9.23605C17.7688 10.752 17.5073 12.2984 16.8022 13.6581C16.0972 15.0178 14.984 16.1226 13.6189 16.8172C13.4985 16.8787 13.3974 16.9723 13.3268 17.0877C13.2563 17.203 13.2189 17.3356 13.2188 17.4708V29.5292C13.2188 29.6644 13.2561 29.7969 13.3266 29.9122C13.3971 30.0276 13.498 30.1212 13.6183 30.1828C14.6149 30.6961 15.4826 31.4281 16.1563 32.324V41.0883C15.5676 41.8836 14.8247 42.5521 13.9719 43.0539C13.1191 43.5557 12.1739 43.8805 11.1928 44.009ZM21.9547 44.0625H19.8282C19.2441 44.0618 18.6841 43.8295 18.2711 43.4165C17.8581 43.0035 17.6257 42.4435 17.6251 41.8594V41.125H20.2585L21.512 42.3787C21.5802 42.4469 21.6612 42.501 21.7503 42.5379C21.8394 42.5748 21.9349 42.5938 22.0313 42.5938H25.6267L27.2728 42.9403L21.9547 44.0625ZM44.0626 41.8594C44.0619 42.4435 43.8296 43.0035 43.4166 43.4165C43.0036 43.8295 42.4436 44.0618 41.8595 44.0625H39.7328L25.8545 41.1407C25.8047 41.1303 22.3355 41.125 22.3355 41.125L21.0819 39.8713C21.0137 39.8031 20.9327 39.749 20.8436 39.7121C20.7545 39.6752 20.659 39.6562 20.5626 39.6562H17.6251V35.9844H20.4118C20.4118 35.9844 25.5666 38.1791 25.6469 38.1854L44.0626 39.6019V41.8594ZM44.0626 38.1288L37.4589 37.6208L41.2763 35.9844H44.0626V38.1288ZM44.0626 34.5156H41.1251C41.0253 34.5156 40.3907 34.7664 40.3907 34.7664V32.3125H38.922V34.5156H33.047V35.9844H37.5498L35.8069 36.7302L31.5782 37.0569V35.377L33.1063 31.0938L36.3545 32.95C36.4617 33.0113 36.5826 33.0445 36.706 33.0467C36.8295 33.0489 36.9515 33.0199 37.0607 32.9624C37.17 32.9049 37.263 32.8208 37.3312 32.7179C37.3994 32.615 37.4405 32.4965 37.4507 32.3735L37.9648 26.2018L40.909 26.6211C41.7819 26.7511 42.5795 27.189 43.1578 27.8556C43.7362 28.5223 44.0571 29.3737 44.0626 30.2563V34.5156Z" fill="#363636"/>
<path d="M28.6406 33.7812H27.1719V35.25H28.6406V33.7812Z" fill="#363636"/>
<path d="M33.2597 17.9096L32.834 16.5039C31.9781 16.7618 31.089 16.8921 30.1951 16.8906H28.6406V18.3594H30.1951C31.2332 18.3609 32.2659 18.2094 33.2597 17.9096Z" fill="#363636"/>
<path d="M11.0156 16.8906H9.54688V30.1094H11.0156V16.8906Z" fill="#363636"/>
</svg>
