<svg width="47" height="47" viewBox="0 0 47 47" fill="none" xmlns="http://www.w3.org/2000/svg">
<path d="M5.30645 22.7419C4.05261 22.7419 3.03226 23.7623 3.03226 25.0161C3.03226 26.27 4.05261 27.2903 5.30645 27.2903C6.56029 27.2903 7.58064 26.27 7.58064 25.0161C7.58064 23.7623 6.56029 22.7419 5.30645 22.7419ZM5.30645 25.7742C4.88876 25.7742 4.54839 25.4346 4.54839 25.0161C4.54839 24.5977 4.88876 24.2581 5.30645 24.2581C5.72414 24.2581 6.06452 24.5977 6.06452 25.0161C6.06452 25.4346 5.72414 25.7742 5.30645 25.7742Z" fill="#363636"/>
<path d="M44.7258 0H42.4516H27.2903H16.2537C15.2735 0 14.4063 0.624645 14.0962 1.55555L13.8567 2.27419H11.371C10.1171 2.27419 9.09677 3.29455 9.09677 4.54839V5.53008C6.90748 6.18429 5.30645 8.21363 5.30645 10.6129C5.30645 12.1965 6.0069 13.6164 7.11065 14.589C5.41486 15.8792 4.25047 17.7865 3.90706 19.903C1.65864 20.5193 0 22.5752 0 25.0161C0 27.9415 2.38032 30.3226 5.30645 30.3226H6.06452V28.8065H5.30645C3.21647 28.8065 1.51613 27.1061 1.51613 25.0161C1.51613 22.9261 3.21647 21.2258 5.30645 21.2258C6.65505 21.2258 7.91268 21.952 8.58963 23.1202L9.90108 22.3606C9.82452 22.2287 9.73582 22.1074 9.6494 21.9839H10.6129V15.9194C13.539 15.9194 15.9194 13.539 15.9194 10.6129C15.9194 7.68677 13.539 5.30645 10.6129 5.30645V4.54839C10.6129 4.13069 10.9533 3.79032 11.371 3.79032H14.9498L15.535 2.03465C15.6381 1.7246 15.9269 1.51613 16.2537 1.51613H16.754C17.1065 3.24376 18.6378 4.54839 20.4677 4.54839C22.2977 4.54839 23.829 3.24376 24.1815 1.51613H27.2903V9.87455C26.6551 9.39318 25.8727 9.09677 25.0161 9.09677C22.9261 9.09677 21.2258 10.7971 21.2258 12.8871C21.2258 14.9771 22.9261 16.6774 25.0161 16.6774C26.8461 16.6774 28.3774 15.3728 28.7299 13.6452H40.9355V21.9839H31.0806V23.5H42.4516V13.6452V12.129H44.7258C45.9796 12.129 47 11.1087 47 9.85484V2.27419C47 1.02035 45.9796 0 44.7258 0ZM9.09677 21.3077C8.14844 20.3449 6.8529 19.7658 5.47702 19.721C5.87576 17.9745 6.96282 16.4341 8.47895 15.4675C8.67832 15.5555 8.88527 15.6275 9.09677 15.6912V21.3077ZM14.4032 10.6129C14.4032 12.7029 12.7029 14.4032 10.6129 14.4032C9.83513 14.4032 9.11269 14.1667 8.51003 13.7634L8.48956 13.721C8.48198 13.7248 8.47592 13.7293 8.46834 13.7331C7.47603 13.0486 6.82258 11.9069 6.82258 10.6129C6.82258 8.52292 8.52292 6.82258 10.6129 6.82258C12.7029 6.82258 14.4032 8.52292 14.4032 10.6129ZM20.4677 3.03226C19.4807 3.03226 18.6469 2.39624 18.333 1.51613H22.6017C22.2886 2.39624 21.4547 3.03226 20.4677 3.03226ZM25.0161 15.1613C23.7623 15.1613 22.7419 14.1409 22.7419 12.8871C22.7419 11.6333 23.7623 10.6129 25.0161 10.6129C26.27 10.6129 27.2903 11.6333 27.2903 12.8871C27.2903 14.1409 26.27 15.1613 25.0161 15.1613ZM36.3871 12.129H28.8065V1.51613H31.1004C30.619 2.15139 30.3226 2.93371 30.3226 3.79032C30.3226 5.88031 32.0229 7.58065 34.1129 7.58065C34.9695 7.58065 35.7518 7.28424 36.3871 6.80287V12.129ZM34.1129 6.06452C32.8591 6.06452 31.8387 5.04416 31.8387 3.79032C31.8387 2.53648 32.8591 1.51613 34.1129 1.51613C35.3667 1.51613 36.3871 2.53648 36.3871 3.79032C36.3871 5.04416 35.3667 6.06452 34.1129 6.06452ZM45.4839 9.85484C45.4839 10.2725 45.1435 10.6129 44.7258 10.6129H42.4516V9.09677H40.9355V10.6129V12.129H37.9032V3.79032C37.9032 2.93371 37.6068 2.15139 37.1255 1.51613H40.9355V7.58065H42.4516V1.51613H44.7258C45.1435 1.51613 45.4839 1.8565 45.4839 2.27419V9.85484Z" fill="#363636"/>
<path d="M8.33871 10.6128C8.33871 11.8667 9.35907 12.887 10.6129 12.887C11.8667 12.887 12.8871 11.8667 12.8871 10.6128C12.8871 9.35898 11.8667 8.33862 10.6129 8.33862C9.35907 8.33862 8.33871 9.35898 8.33871 10.6128ZM11.371 10.6128C11.371 11.0305 11.0306 11.3709 10.6129 11.3709C10.1952 11.3709 9.85484 11.0305 9.85484 10.6128C9.85484 10.1951 10.1952 9.85475 10.6129 9.85475C11.0306 9.85475 11.371 10.1951 11.371 10.6128Z" fill="#363636"/>
<path d="M22.5 43.585V46.0001H18.4355V43.585V42.8098L17.6848 42.6166C16.6815 42.3583 15.7215 41.9597 14.8198 41.4254L14.152 41.0296L13.603 41.5784L11.8919 43.289L9.01748 40.4147L10.7281 38.7035L11.2769 38.1546L10.8811 37.4867C10.3468 36.5851 9.94824 35.6251 9.68995 34.6217L9.49669 33.871H8.72152H6.30644V29.8065H8.72152H9.49669L9.68995 29.0558C9.94824 28.0525 10.3468 27.0925 10.8811 26.1908L11.2769 25.523L10.7281 24.974L9.01748 23.2629L11.8919 20.3885L13.603 22.0991L14.152 22.6479L14.8198 22.2522C15.7215 21.7179 16.6815 21.3193 17.6848 21.061L18.4355 20.8677V20.0926V17.6775H22.5V20.0926V20.8677L23.2507 21.061C24.254 21.3193 25.214 21.7179 26.1157 22.2522L26.7835 22.6479L27.3325 22.0991L29.0436 20.3885L31.918 23.2629L30.2074 24.974L29.6586 25.523L30.0543 26.1908C30.5887 27.0925 30.9872 28.0525 31.2455 29.0558L31.4388 29.8065H32.2139H34.629V33.871H32.2139H31.4388L31.2455 34.6217C30.9872 35.6251 30.5887 36.5851 30.0543 37.4867L29.6586 38.1546L30.2074 38.7035L31.918 40.4147L29.0436 43.289L27.3325 41.5784L26.7835 41.0296L26.1157 41.4254C25.214 41.9597 24.254 42.3583 23.2507 42.6166L22.5 42.8098V43.585Z" stroke="#363636" stroke-width="2"/>
</svg>
