<svg width="22" height="21" viewBox="0 0 22 21" fill="none" xmlns="http://www.w3.org/2000/svg">
<path d="M12.9336 10.5C12.9336 11.5193 12.0678 12.3457 11 12.3457C9.93216 12.3457 9.06641 11.5193 9.06641 10.5C9.06641 9.4807 9.93216 8.6543 11 8.6543C12.0678 8.6543 12.9336 9.4807 12.9336 10.5Z" fill="#272727"/>
<path d="M14.2656 4.92188H7.73438C6.31271 4.92188 5.15625 6.02577 5.15625 7.38281V13.6172C5.15625 14.9742 6.31271 16.0781 7.73438 16.0781H14.2656C15.6873 16.0781 16.8438 14.9742 16.8438 13.6172V7.38281C16.8438 6.02577 15.6873 4.92188 14.2656 4.92188ZM11 13.5762C9.22301 13.5762 7.77734 12.1962 7.77734 10.5C7.77734 8.80378 9.22301 7.42383 11 7.42383C12.777 7.42383 14.2227 8.80378 14.2227 10.5C14.2227 12.1962 12.777 13.5762 11 13.5762ZM14.6953 7.58789C14.3393 7.58789 14.0508 7.31248 14.0508 6.97266C14.0508 6.63284 14.3393 6.35742 14.6953 6.35742C15.0513 6.35742 15.3398 6.63284 15.3398 6.97266C15.3398 7.31248 15.0513 7.58789 14.6953 7.58789Z" fill="#272727"/>
<path d="M16.1992 0H5.80078C2.60229 0 0 2.48401 0 5.53711V15.4629C0 18.516 2.60229 21 5.80078 21H16.1992C19.3977 21 22 18.516 22 15.4629V5.53711C22 2.48401 19.3977 0 16.1992 0ZM18.1328 13.6172C18.1328 15.6526 16.3979 17.3086 14.2656 17.3086H7.73438C5.60205 17.3086 3.86719 15.6526 3.86719 13.6172V7.38281C3.86719 5.34741 5.60205 3.69141 7.73438 3.69141H14.2656C16.3979 3.69141 18.1328 5.34741 18.1328 7.38281V13.6172Z" fill="#272727"/>
</svg>
