<svg width="58" height="62" viewBox="0 0 58 62" fill="none" xmlns="http://www.w3.org/2000/svg">
<g filter="url(#filter0_d)">
<path d="M54 26.6952C54 11.9528 42.8078 -4.89225e-07 29 -1.09278e-06C15.1922 -1.69634e-06 4 11.9528 4 26.6952C4 41.4393 15.1938 53.3904 29 53.3904C42.8062 53.3904 54 41.4393 54 26.6952ZM28.1641 37.6002C27.5531 36.9478 27.5531 35.8917 28.1641 35.241L34.6031 28.3636L18.0625 28.3636C17.2 28.3636 16.5 27.6162 16.5 26.6952C16.5 25.7742 17.2 25.0267 18.0625 25.0267L34.6031 25.0267L28.1641 18.1511C27.5531 17.4987 27.5531 16.4426 28.1641 15.7919C28.7751 15.1395 29.7641 15.1395 30.3734 15.7919L39.2125 25.2303C39.5859 25.629 39.7031 26.1779 39.6172 26.6952C39.7031 27.2124 39.5859 27.7613 39.2125 28.1618L30.3734 37.6002C29.7625 38.2509 28.7734 38.2509 28.1641 37.6002Z" fill="#353535"/>
</g>
<defs>
<filter id="filter0_d" x="0" y="0" width="58" height="61.3904" filterUnits="userSpaceOnUse" color-interpolation-filters="sRGB">
<feFlood flood-opacity="0" result="BackgroundImageFix"/>
<feColorMatrix in="SourceAlpha" type="matrix" values="0 0 0 0 0 0 0 0 0 0 0 0 0 0 0 0 0 0 127 0"/>
<feOffset dy="4"/>
<feGaussianBlur stdDeviation="2"/>
<feColorMatrix type="matrix" values="0 0 0 0 0 0 0 0 0 0 0 0 0 0 0 0 0 0 0.25 0"/>
<feBlend mode="normal" in2="BackgroundImageFix" result="effect1_dropShadow"/>
<feBlend mode="normal" in="SourceGraphic" in2="effect1_dropShadow" result="shape"/>
</filter>
</defs>
</svg>
