<svg width="58" height="62" viewBox="0 0 58 62" fill="none" xmlns="http://www.w3.org/2000/svg">
<g filter="url(#filter0_d)">
<path d="M4 26.6952C4 41.4376 15.1922 53.3904 29 53.3904C42.8078 53.3904 54 41.4376 54 26.6952C54 11.9511 42.8062 1.029e-06 29 8.64366e-07C15.1938 6.99729e-07 4 11.9511 4 26.6952ZM29.8359 15.7902C30.4469 16.4426 30.4469 17.4987 29.8359 18.1494L23.3969 25.0267L39.9375 25.0267C40.8 25.0267 41.5 25.7742 41.5 26.6952C41.5 27.6162 40.8 28.3636 39.9375 28.3636L23.3969 28.3636L29.8359 35.2393C30.4469 35.8917 30.4469 36.9478 29.8359 37.5985C29.2249 38.2509 28.2359 38.2509 27.6266 37.5985L18.7875 28.1601C18.4141 27.7613 18.2969 27.2124 18.3828 26.6952C18.2969 26.1779 18.4141 25.629 18.7875 25.2286L27.6266 15.7902C28.2375 15.1395 29.2266 15.1395 29.8359 15.7902Z" fill="#353535"/>
</g>
<defs>
<filter id="filter0_d" x="0" y="0" width="58" height="61.3904" filterUnits="userSpaceOnUse" color-interpolation-filters="sRGB">
<feFlood flood-opacity="0" result="BackgroundImageFix"/>
<feColorMatrix in="SourceAlpha" type="matrix" values="0 0 0 0 0 0 0 0 0 0 0 0 0 0 0 0 0 0 127 0"/>
<feOffset dy="4"/>
<feGaussianBlur stdDeviation="2"/>
<feColorMatrix type="matrix" values="0 0 0 0 0 0 0 0 0 0 0 0 0 0 0 0 0 0 0.25 0"/>
<feBlend mode="normal" in2="BackgroundImageFix" result="effect1_dropShadow"/>
<feBlend mode="normal" in="SourceGraphic" in2="effect1_dropShadow" result="shape"/>
</filter>
</defs>
</svg>
