<svg width="248" height="246" viewBox="0 0 248 246" fill="none" xmlns="http://www.w3.org/2000/svg">
<circle cx="124" cy="124" r="109.192" stroke="#676767" stroke-opacity="0.3"/>
<circle cx="124" cy="124" r="109.192" stroke="url(#paint0_linear)"/>
<path d="M247.5 122.808C247.5 190.352 192.212 245.115 124 245.115C55.7883 245.115 0.5 190.352 0.5 122.808C0.5 55.2636 55.7883 0.5 124 0.5C192.212 0.5 247.5 55.2636 247.5 122.808Z" stroke="#676767" stroke-opacity="0.3"/>
<path d="M247.5 122.808C247.5 190.352 192.212 245.115 124 245.115C55.7883 245.115 0.5 190.352 0.5 122.808C0.5 55.2636 55.7883 0.5 124 0.5C192.212 0.5 247.5 55.2636 247.5 122.808Z" stroke="url(#paint1_linear)"/>
<path d="M222.462 124.596C222.462 177.978 178.387 221.269 124 221.269C69.6125 221.269 25.5385 177.978 25.5385 124.596C25.5385 71.2134 69.6125 27.9229 124 27.9229C178.387 27.9229 222.462 71.2134 222.462 124.596Z" stroke="#676767" stroke-opacity="0.3"/>
<path d="M222.462 124.596C222.462 177.978 178.387 221.269 124 221.269C69.6125 221.269 25.5385 177.978 25.5385 124.596C25.5385 71.2134 69.6125 27.9229 124 27.9229C178.387 27.9229 222.462 71.2134 222.462 124.596Z" stroke="url(#paint2_linear)"/>
<path d="M209.346 124C209.346 170.47 171.142 208.154 124 208.154C76.858 208.154 38.6538 170.47 38.6538 124C38.6538 77.5297 76.858 39.8462 124 39.8462C171.142 39.8462 209.346 77.5297 209.346 124Z" stroke="#676767" stroke-opacity="0.3"/>
<path d="M209.346 124C209.346 170.47 171.142 208.154 124 208.154C76.858 208.154 38.6538 170.47 38.6538 124C38.6538 77.5297 76.858 39.8462 124 39.8462C171.142 39.8462 209.346 77.5297 209.346 124Z" stroke="url(#paint3_linear)"/>
<defs>
<linearGradient id="paint0_linear" x1="124" y1="14.3076" x2="124" y2="233.692" gradientUnits="userSpaceOnUse">
<stop stop-color="white" stop-opacity="0.39"/>
<stop offset="1" stop-color="white" stop-opacity="0"/>
</linearGradient>
<linearGradient id="paint1_linear" x1="124" y1="0" x2="124" y2="245.615" gradientUnits="userSpaceOnUse">
<stop stop-color="white" stop-opacity="0.39"/>
<stop offset="1" stop-color="white" stop-opacity="0"/>
</linearGradient>
<linearGradient id="paint2_linear" x1="124" y1="27.4229" x2="124" y2="221.769" gradientUnits="userSpaceOnUse">
<stop stop-color="white" stop-opacity="0.39"/>
<stop offset="1" stop-color="white" stop-opacity="0"/>
</linearGradient>
<linearGradient id="paint3_linear" x1="124" y1="39.3462" x2="124" y2="208.654" gradientUnits="userSpaceOnUse">
<stop stop-color="white" stop-opacity="0.39"/>
<stop offset="1" stop-color="white" stop-opacity="0"/>
</linearGradient>
</defs>
</svg>
