<svg width="815" height="805" viewBox="0 0 815 805" fill="none" xmlns="http://www.w3.org/2000/svg">
<path d="M729.635 402.308C729.635 578.008 585.422 720.463 407.5 720.463C229.578 720.463 85.3652 578.008 85.3652 402.308C85.3652 226.607 229.578 84.1523 407.5 84.1523C585.422 84.1523 729.635 226.607 729.635 402.308Z" stroke="#747474" stroke-opacity="0.37" stroke-width="2"/>
<path d="M688.248 403.104C688.248 555.506 562.923 679.076 408.296 679.076C253.669 679.076 128.344 555.506 128.344 403.104C128.344 250.701 253.669 127.131 408.296 127.131C562.923 127.131 688.248 250.701 688.248 403.104Z" stroke="#747474" stroke-opacity="0.37" stroke-width="2"/>
<path d="M769.43 403.104C769.43 600.344 607.755 760.258 408.296 760.258C208.837 760.258 47.1621 600.344 47.1621 403.104C47.1621 205.863 208.837 45.9492 408.296 45.9492C607.755 45.9492 769.43 205.863 769.43 403.104Z" stroke="#747474" stroke-opacity="0.37" stroke-width="2"/>
<path d="M814 402.308C814 623.721 632.017 803.236 407.5 803.236C182.983 803.236 1 623.721 1 402.308C1 180.894 182.983 1.37891 407.5 1.37891C632.017 1.37891 814 180.894 814 402.308Z" stroke="#747474" stroke-opacity="0.37" stroke-width="2"/>
</svg>
