<svg width="297" height="293" viewBox="0 0 297 293" fill="none" xmlns="http://www.w3.org/2000/svg">
<path d="M265.256 146.47C265.256 210.14 212.994 261.775 148.5 261.775C84.0058 261.775 31.7441 210.14 31.7441 146.47C31.7441 82.7998 84.0058 31.1641 148.5 31.1641C212.994 31.1641 265.256 82.7998 265.256 146.47Z" stroke="#A6A6A6" stroke-opacity="0.37" stroke-width="2"/>
<path d="M250.174 146.76C250.174 201.938 204.796 246.693 148.79 246.693C92.7838 246.693 47.4062 201.938 47.4062 146.76C47.4062 91.5814 92.7838 46.8262 148.79 46.8262C204.796 46.8262 250.174 91.5814 250.174 146.76Z" stroke="#A6A6A6" stroke-opacity="0.37" stroke-width="2"/>
<path d="M279.758 146.76C279.758 218.28 221.132 276.277 148.79 276.277C76.4481 276.277 17.8223 218.28 17.8223 146.76C17.8223 75.2396 76.4481 17.2422 148.79 17.2422C221.132 17.2422 279.758 75.2396 279.758 146.76Z" stroke="#A6A6A6" stroke-opacity="0.37" stroke-width="2"/>
<path d="M296 146.47C296 226.798 229.975 291.939 148.5 291.939C67.025 291.939 1 226.798 1 146.47C1 66.1419 67.025 1 148.5 1C229.975 1 296 66.1419 296 146.47Z" stroke="#A6A6A6" stroke-opacity="0.37" stroke-width="2"/>
</svg>
