<svg viewBox="0 0 529 501" fill="none" xmlns="http://www.w3.org/2000/svg">
<path d="M51.5348 189.904C52.6226 188.644 53.6078 187.683 54.4903 187.02L59.7996 192.652C58.8203 193.355 57.9169 194.186 57.0896 195.143C54.9293 197.644 53.9925 200.378 54.2792 203.345C54.5812 206.293 56.0384 208.891 58.6508 211.137L74.0585 224.385L68.6578 230.637L39.1751 205.287L43.4038 200.392L49.3143 204.037L49.5901 203.717C48.6734 201.229 48.3738 198.761 48.6914 196.314C49.0242 193.85 49.972 191.713 51.5348 189.904Z" fill="white" fill-opacity="0.87"/>
<path d="M143.455 177.467C137.591 178.943 132.445 178.43 128.017 175.929C123.604 173.4 120.422 169.199 118.469 163.328C116.465 157.301 116.423 152.178 118.345 147.959C120.267 143.74 123.91 140.956 129.274 139.606C134.252 138.354 138.676 138.844 142.546 141.075C146.417 143.307 149.214 147.014 150.937 152.196L152.346 156.432L127.219 162.754C128.524 166.306 130.429 168.815 132.937 170.281C135.437 171.724 138.38 172.02 141.767 171.168C143.994 170.608 145.996 169.887 147.772 169.007C149.563 168.098 151.402 166.888 153.289 165.377L155.408 171.749C153.757 173.153 151.994 174.295 150.119 175.176C148.245 176.058 146.024 176.821 143.455 177.467ZM131.249 145.544C128.704 146.185 126.921 147.489 125.9 149.457C124.902 151.419 124.759 153.949 125.469 157.048L142.584 152.742C141.526 149.707 140.01 147.594 138.037 146.403C136.058 145.19 133.795 144.904 131.249 145.544Z" fill="white" fill-opacity="0.87"/>
<path d="M229.504 177.609L227.609 135.323L235.754 138.434L236.226 162.778C236.334 166.878 236.16 170.093 235.706 172.425L235.969 172.525C236.682 170.994 238.388 168.364 241.086 164.634L255.394 145.936L263.604 149.072L237.846 180.796L229.504 177.609Z" fill="white" fill-opacity="0.87"/>
<path d="M312.802 232.208C309.247 227.316 307.927 222.511 308.84 217.792C309.787 213.08 312.834 209.008 317.983 205.575C323.267 202.052 328.351 200.562 333.233 201.106C338.116 201.651 342.183 204.16 345.435 208.635C348.452 212.787 349.539 216.932 348.695 221.069C347.851 225.206 345.158 228.789 340.614 231.819L336.899 234.296L321.668 213.335C318.597 215.523 316.778 217.96 316.212 220.646C315.664 223.319 316.417 226.068 318.47 228.893C319.82 230.751 321.25 232.359 322.758 233.718C324.3 235.083 326.158 236.405 328.333 237.685L322.746 241.41C320.762 240.313 318.997 239.04 317.453 237.593C315.909 236.145 314.359 234.35 312.802 232.208ZM340.228 212.106C338.685 209.983 336.753 208.738 334.431 208.372C332.124 208.024 329.554 208.612 326.723 210.133L337.098 224.41C339.742 222.591 341.305 220.62 341.789 218.496C342.291 216.36 341.771 214.23 340.228 212.106Z" fill="white" fill-opacity="0.87"/>
<path d="M351.303 307.596L350.073 299.426L388.865 296.763L390.095 304.933L351.303 307.596ZM399.068 295.571C400.541 295.47 401.734 295.786 402.648 296.519C403.565 297.276 404.136 298.396 404.359 299.879C404.575 301.316 404.345 302.456 403.669 303.298C402.996 304.164 401.923 304.648 400.45 304.749C399.047 304.845 397.875 304.516 396.935 303.761C396.021 303.027 395.456 301.942 395.24 300.505C395.016 299.022 395.241 297.847 395.914 296.982C396.614 296.138 397.665 295.667 399.068 295.571Z" fill="white" fill-opacity="0.87"/>
<path d="M343.412 392.978L361.509 397.59C363.462 398.011 367.852 399.266 374.678 401.354L374.827 401.075C369.983 396.722 366.601 393.533 364.681 391.51L351.455 377.943L355.767 369.883L394.612 379.66L390.632 387.1L371.685 381.918C367.051 380.549 363.16 379.23 360.014 377.961L359.914 378.147C361.287 379.207 362.817 380.492 364.506 382.004C366.204 383.548 367.447 384.75 368.236 385.609L383.186 401.019L378.908 409.017L358.469 403.868C357.308 403.605 355.579 403.111 353.284 402.386C350.978 401.681 349.234 401.042 348.052 400.471L347.919 400.718C350.252 402.466 353.36 405.199 357.242 408.918L371.479 422.905L367.565 430.221L339.035 401.162L343.412 392.978Z" fill="white" fill-opacity="0.87"/>
</svg>
