<svg width="62" height="62" viewBox="0 0 62 62" fill="none" xmlns="http://www.w3.org/2000/svg">
<path d="M62 31C62 13.8803 48.1217 0 31 0C13.8783 0 0 13.8803 0 31C0 48.1217 13.8803 62 31 62C48.1197 62 62 48.1217 62 31ZM29.9635 43.6635C29.2058 42.9059 29.2058 41.6795 29.9635 40.9239L37.9478 32.9375H17.4375C16.368 32.9375 15.5 32.0695 15.5 31C15.5 29.9305 16.368 29.0625 17.4375 29.0625L37.9478 29.0625L29.9635 21.0781C29.2058 20.3205 29.2058 19.0941 29.9635 18.3384C30.7211 17.5809 31.9474 17.5809 32.7031 18.3384L43.6635 29.2989C44.1266 29.7619 44.2718 30.3993 44.1653 31C44.2718 31.6007 44.1266 32.2381 43.6635 32.7031L32.7031 43.6635C31.9455 44.4192 30.7191 44.4192 29.9635 43.6635Z" fill="white"/>
</svg>
