<svg width="205" height="204" viewBox="0 0 205 204" fill="none" xmlns="http://www.w3.org/2000/svg">
<circle cx="102.5" cy="102.5" r="89.6731" stroke="#DCDCDC" stroke-opacity="0.47" stroke-width="2"/>
<path d="M204 101.514C204 157.018 158.566 202.029 102.5 202.029C46.434 202.029 1 157.018 1 101.514C1 46.0109 46.434 1 102.5 1C158.566 1 204 46.0109 204 101.514Z" stroke="#DCDCDC" stroke-opacity="0.47" stroke-width="2"/>
<path d="M183.303 102.993C183.303 146.785 147.143 182.317 102.5 182.317C57.8565 182.317 21.6971 146.785 21.6971 102.993C21.6971 59.2001 57.8565 23.6682 102.5 23.6682C147.143 23.6682 183.303 59.2001 183.303 102.993Z" stroke="#DCDCDC" stroke-opacity="0.47" stroke-width="2"/>
<path d="M173.447 102.5C173.447 140.581 142.138 171.476 103.486 171.476C64.8337 171.476 33.524 140.581 33.524 102.5C33.524 64.4187 64.8337 33.5239 103.486 33.5239C142.138 33.5239 173.447 64.4187 173.447 102.5Z" stroke="#DCDCDC" stroke-opacity="0.47" stroke-width="2"/>
</svg>
