<svg width="62" height="62" viewBox="0 0 62 62" fill="none" xmlns="http://www.w3.org/2000/svg">
<path d="M0 31C0 48.1197 13.8783 62 31 62C48.1217 62 62 48.1197 62 31C62 13.8783 48.1197 -8.64267e-07 31 -8.64267e-07C13.8803 -8.64267e-07 0 13.8783 0 31ZM32.0365 18.3365C32.7941 19.0941 32.7941 20.3205 32.0365 21.0761L24.0522 29.0625H44.5625C45.632 29.0625 46.5 29.9305 46.5 31C46.5 32.0695 45.632 32.9375 44.5625 32.9375H24.0522L32.0365 40.9219C32.7941 41.6795 32.7941 42.9059 32.0365 43.6616C31.2789 44.4191 30.0526 44.4191 29.2969 43.6616L18.3365 32.7011C17.8734 32.2381 17.7282 31.6006 17.8347 31C17.7282 30.3993 17.8734 29.7619 18.3365 29.2969L29.2969 18.3365C30.0545 17.5808 31.2809 17.5808 32.0365 18.3365Z" fill="white"/>
</svg>
