<svg width="401" height="119" viewBox="0 0 401 119" fill="none" xmlns="http://www.w3.org/2000/svg">
<path d="M23.165 54.44V19.72H32.765C38.525 19.72 42.6317 21.2133 45.085 24.2C47.5383 27.1867 48.765 31.56 48.765 37.32C48.765 43.1867 47.325 47.5067 44.445 50.28C41.6717 53.0533 37.9917 54.44 33.405 54.44H23.165ZM0.125 2.75999V117H23.165V71.4H35.485C40.925 71.4 45.885 70.7067 50.365 69.32C54.845 67.9333 58.6317 65.8533 61.725 63.08C64.925 60.3067 67.3783 56.7333 69.085 52.36C70.8983 47.9867 71.805 42.8667 71.805 37C71.805 32.7333 71.2717 28.5733 70.205 24.52C69.1383 20.36 67.3783 16.68 64.925 13.48C62.4717 10.28 59.2183 7.71999 55.165 5.79999C51.2183 3.77333 46.3117 2.75999 40.445 2.75999H0.125ZM124.836 73.96L113.796 22.6H113.476L102.436 73.96H124.836ZM127.876 2.75999L158.116 117H134.116L128.836 92.84H98.4363L93.1563 117H69.1562L99.3963 2.75999H127.876ZM166.063 2.75999V117H189.103V68.68H201.423C206.223 68.68 209.636 69.96 211.663 72.52C213.689 75.08 214.809 78.6 215.023 83.08L215.663 105C215.769 107.24 215.983 109.427 216.303 111.56C216.623 113.587 217.369 115.4 218.543 117H243.503V116.04C241.369 114.867 239.983 112.68 239.343 109.48C238.916 106.28 238.596 101.64 238.383 95.56C238.276 92.4667 238.169 89.6933 238.062 87.24C237.956 84.68 237.796 82.3333 237.583 80.2C236.943 73.8 235.289 69.16 232.623 66.28C229.956 63.4 225.743 61.5333 219.983 60.68V60.36C226.489 58.9733 231.289 55.88 234.383 51.08C237.476 46.1733 239.023 39.88 239.023 32.2C239.023 22.28 236.356 14.92 231.023 10.12C225.689 5.21333 218.223 2.75999 208.623 2.75999H166.063ZM189.103 52.68V19.72H199.983C210.649 19.72 215.983 25 215.983 35.56C215.983 41.7467 214.489 46.1733 211.503 48.84C208.516 51.4 204.249 52.68 198.703 52.68H189.103ZM319.036 2.75999H246.076V21.64H271.036V117H294.076V21.64H319.036V2.75999ZM347.591 81.32H324.551V85.96C324.551 96.52 327.325 104.627 332.871 110.28C338.525 115.933 347.858 118.76 360.871 118.76C373.351 118.76 383.058 116.04 389.991 110.6C397.031 105.053 400.551 96.2533 400.551 84.2C400.551 80.68 400.231 77.48 399.591 74.6C398.951 71.72 397.778 69.1067 396.071 66.76C394.471 64.3067 392.285 62.0667 389.511 60.04C386.738 57.9067 383.165 55.88 378.791 53.96L361.031 46.28C356.125 44.2533 352.925 42.0667 351.431 39.72C349.938 37.2667 349.191 34.28 349.191 30.76C349.191 29.0533 349.351 27.4 349.671 25.8C350.098 24.2 350.791 22.8133 351.751 21.64C352.818 20.36 354.205 19.3467 355.911 18.6C357.618 17.8533 359.751 17.48 362.311 17.48C366.791 17.48 369.991 18.9733 371.911 21.96C373.831 24.84 374.791 29 374.791 34.44H396.871V31.24C396.871 25.8 395.965 21.16 394.151 17.32C392.445 13.3733 389.991 10.1733 386.791 7.72C383.698 5.16 379.965 3.34666 375.591 2.28C371.325 1.10666 366.631 0.519993 361.511 0.519993C350.525 0.519993 341.885 3.29333 335.591 8.83999C329.298 14.3867 326.151 22.8133 326.151 34.12C326.151 38.8133 326.738 42.9733 327.911 46.6C329.085 50.12 330.898 53.2667 333.351 56.04C335.911 58.7067 339.058 61.0533 342.791 63.08C346.525 65.1067 350.951 66.9733 356.071 68.68C359.911 69.96 363.111 71.24 365.671 72.52C368.338 73.6933 370.471 75.0267 372.071 76.52C373.671 78.0133 374.791 79.72 375.431 81.64C376.178 83.4533 376.551 85.64 376.551 88.2C376.551 93 375.111 96.5733 372.231 98.92C369.458 101.16 366.311 102.28 362.791 102.28C359.805 102.28 357.298 101.853 355.271 101C353.351 100.147 351.805 98.9733 350.631 97.48C349.458 95.9867 348.658 94.1733 348.231 92.04C347.805 89.8 347.591 87.3467 347.591 84.68V81.32Z" fill="white" fill-opacity="0.24"/>
</svg>
