<svg width="512" height="505" viewBox="0 0 512 505" fill="none" xmlns="http://www.w3.org/2000/svg">
<path d="M458 252.5C458 362.669 367.573 452 256 452C144.427 452 54 362.669 54 252.5C54 142.331 144.427 53 256 53C367.573 53 458 142.331 458 252.5Z" stroke="white" stroke-opacity="0.29" stroke-width="2"/>
<path d="M432 253C432 348.532 353.439 426 256.5 426C159.561 426 81 348.532 81 253C81 157.468 159.561 80 256.5 80C353.439 80 432 157.468 432 253Z" stroke="white" stroke-opacity="0.17" stroke-width="2"/>
<path d="M483 253C483 376.701 381.603 477 256.5 477C131.397 477 30 376.701 30 253C30 129.299 131.397 29 256.5 29C381.603 29 483 129.299 483 253Z" stroke="white" stroke-opacity="0.37" stroke-width="2"/>
<path d="M511 252.5C511 391.387 396.846 504 256 504C115.154 504 1 391.387 1 252.5C1 113.613 115.154 1 256 1C396.846 1 511 113.613 511 252.5Z" stroke="white" stroke-opacity="0.54" stroke-width="2"/>
</svg>
