<svg width="24" height="24" viewBox="0 0 24 24" fill="none" xmlns="http://www.w3.org/2000/svg">
<path d="M11.25 21H12.75V19.5H11.25V21ZM12 3C11.586 3 11.25 3.336 11.25 3.75V11.268H5.25C4.836 11.268 4.5 11.604 4.5 12.018C4.5 12.432 4.836 12.768 5.25 12.768H12C12.414 12.768 12.75 12.432 12.75 12.018V3.75C12.75 3.336 12.414 3 12 3ZM5.04976 17.124L6.08777 18.1642L7.12576 17.124L6.08777 16.0838L5.04976 17.124ZM7.26973 6.24224L6.20847 5.18176L5.14796 6.24224L6.20847 7.30275L7.26973 6.24224ZM16.557 6.20474L17.595 7.24498L18.633 6.20474L17.595 5.16451L16.557 6.20474ZM16.3373 17.0835L17.3978 18.144L18.4583 17.0835L17.3978 16.023L16.3373 17.0835ZM19.5 11.25V12.75H21V11.25H19.5ZM12 0C5.37224 0 0 5.37302 0 12C0 18.6278 5.37224 24 12 24C18.6278 24 24 18.627 24 12C24 5.37302 18.6278 0 12 0ZM12 22.5C6.20098 22.5 1.5 17.799 1.5 12C1.5 6.20098 6.20098 1.5 12 1.5C17.799 1.5 22.5 6.20098 22.5 12C22.5 17.799 17.799 22.5 12 22.5Z" fill="#3C3C3C"/>
</svg>
