<svg width="15" height="16" viewBox="0 0 15 16" fill="none" xmlns="http://www.w3.org/2000/svg">
<path d="M14.504 9.26264C14.9809 5.24818 14.2749 2.71375 13.0013 1.56742L13.002 1.56676C10.9465 -0.39085 4.0046 -0.680594 1.54543 1.65468C0.441075 2.797 0.0520851 4.47353 0.00945605 6.54903C-0.033173 8.6252 -0.0837951 12.5144 3.54034 13.5695H3.54367L3.54034 15.1807C3.54034 15.1807 3.5157 15.8335 3.93266 15.9647C4.40957 16.1193 4.62538 15.8162 6.10874 14.0444C8.58922 14.2596 10.4942 13.7667 10.7107 13.6947C11.2116 13.5269 14.0457 13.1519 14.504 9.26264ZM6.35319 12.9108C6.35319 12.9108 4.78325 14.8684 4.29501 15.3766C4.13515 15.5418 3.95997 15.5264 3.96264 15.1987C3.96264 14.9836 3.97462 12.5238 3.97462 12.5238C0.902002 11.6432 1.08318 8.33146 1.11648 6.59899C1.14978 4.86585 1.46684 3.44643 2.40201 2.49061C4.55944 0.467726 10.6454 0.919994 12.196 2.37738C14.0917 4.05789 13.417 8.80571 13.421 8.96756C13.0313 12.214 10.7347 12.4199 10.3124 12.5604C10.1319 12.6203 8.45667 13.0513 6.35319 12.9108Z" fill="#EAEAEA" fill-opacity="0.9"/>
<path d="M7.22175 2.87109C6.96531 2.87109 6.96531 3.27074 7.22175 3.27407C9.21133 3.28939 10.8499 4.67617 10.8679 7.21992C10.8679 7.48835 11.2609 7.48502 11.2575 7.21659H11.2569C11.2355 4.47568 9.44645 2.88641 7.22175 2.87109Z" fill="#EAEAEA" fill-opacity="0.9"/>
<path d="M9.83877 6.79819C9.83278 7.06329 10.2251 7.07594 10.2284 6.80751C10.2611 5.29618 9.32922 4.05128 7.57809 3.92006C7.32165 3.90141 7.29501 4.30439 7.55078 4.32304C9.06945 4.43827 9.86941 5.47469 9.83877 6.79819Z" fill="#EAEAEA" fill-opacity="0.9"/>
<path d="M9.41912 8.51719C9.09008 8.32669 8.75504 8.44526 8.61649 8.63242L8.32675 9.00743C8.17955 9.19793 7.90446 9.17262 7.90446 9.17262C5.8969 8.64175 5.36004 6.54094 5.36004 6.54094C5.36004 6.54094 5.33539 6.25652 5.51923 6.10399L5.88158 5.80425C6.06275 5.66038 6.17731 5.31402 5.99281 4.97365C5.49991 4.0831 5.16887 3.77604 5.00035 3.54025C4.82318 3.31844 4.55675 3.26849 4.27966 3.41836H4.27366C3.6975 3.75539 3.06673 4.38617 3.26855 5.0356C3.61291 5.72033 4.24569 7.90307 6.26257 9.55228C7.2104 10.3323 8.71041 11.1316 9.34718 11.3161L9.35318 11.3254C9.98062 11.5345 10.5908 10.8791 10.9165 10.2856V10.281C11.061 9.99389 11.013 9.72213 10.8019 9.54429C10.4276 9.17928 9.86273 8.7763 9.41912 8.51719Z" fill="#EAEAEA" fill-opacity="0.9"/>
<path d="M7.85248 5.40633C8.49258 5.44363 8.80298 5.77801 8.83628 6.46474C8.84827 6.73317 9.23793 6.71452 9.22594 6.44609C9.18331 5.54954 8.71572 5.04998 7.87379 5.00336C7.61735 4.98804 7.59337 5.39101 7.85248 5.40633Z" fill="#EAEAEA" fill-opacity="0.9"/>
</svg>
