<svg width="22" height="21" viewBox="0 0 22 21" fill="none" xmlns="http://www.w3.org/2000/svg">
<path d="M9.93832 12.3581L12.9198 10.4569L9.93832 8.55566V12.3581Z" fill="#272727"/>
<path d="M20.2873 0H1.57686C0.705942 0 0 0.675249 0 1.5083V19.4053C0 20.2383 0.705942 20.9136 1.57686 20.9136H20.2873C21.1583 20.9136 21.8642 20.2383 21.8642 19.4053V1.5083C21.8642 0.675249 21.1583 0 20.2873 0ZM17.763 10.4675C17.763 10.4675 17.763 12.5882 17.4817 13.6108C17.3241 14.1705 16.8627 14.6118 16.2775 14.7625C15.2085 15.0316 10.9321 15.0316 10.9321 15.0316C10.9321 15.0316 6.66692 15.0316 5.58665 14.7518C5.00148 14.6011 4.54008 14.1597 4.38245 13.5999C4.10104 12.5882 4.10104 10.4568 4.10104 10.4568C4.10104 10.4568 4.10104 8.33626 4.38245 7.31366C4.53992 6.75393 5.01266 6.30174 5.58665 6.15112C6.65574 5.88194 10.9321 5.88194 10.9321 5.88194C10.9321 5.88194 15.2085 5.88194 16.2775 6.16181C16.8627 6.31243 17.3241 6.75393 17.4817 7.31366C17.7743 8.33626 17.763 10.4675 17.763 10.4675Z" fill="#272727"/>
</svg>
